<?xml version="1.0" encoding="UTF-8" standalone="no"?>
<!-- Created with Inkscape (http://www.inkscape.org/) -->

<svg
   version="1.1"
   id="svg58"
   width="43.438675"
   height="42.366486"
   viewBox="0 0 43.438675 42.366485"
   xmlns="http://www.w3.org/2000/svg"
   xmlns:svg="http://www.w3.org/2000/svg">
  <defs
     id="defs62">
    <clipPath
       clipPathUnits="userSpaceOnUse"
       id="clipPath76">
      <path
         d="M 0,551.986 H 530.973 V 0 H 0 Z"
         id="path74" />
    </clipPath>
  </defs>
  <g
     id="g66"
     transform="matrix(1.3333333,0,0,-1.3333333,-181.76039,592.72718)">
    <g
       id="g70">
      <g
         id="g72"
         clip-path="url(#clipPath76)">
        <g
           id="g78"
           transform="translate(152.6083,444.5454)">
          <rect
             style="fill:#ffffff;stroke-width:0.75"
             id="rect4780"
             width="22.190039"
             height="17.318371"
             x="-10.683856"
             y="6.020494"
             transform="scale(1,-1)" />
          <rect
             style="fill:#ffffff;stroke-width:0.75"
             id="rect4782"
             width="9.8247528"
             height="2.9669497"
             x="-13.257609"
             y="22.116795"
             transform="scale(1,-1)" />
          <rect
             style="fill:#ffffff;stroke-width:0.75"
             id="rect4784"
             width="17.480387"
             height="3.9006565"
             x="-10.846418"
             y="24.420429"
             transform="scale(1,-1)" />
          <rect
             style="fill:#ffffff;stroke-width:0.75"
             id="rect4786"
             width="11.444377"
             height="5.8394122"
             x="-6.4175038"
             y="20.727535"
             transform="scale(1,-1)" />
          <rect
             style="fill:#ffffff;stroke-width:0.75"
             id="rect4788"
             width="14.613915"
             height="2.5527856"
             x="-7.8854589"
             y="27.511547"
             transform="scale(1,-1)" />
          <rect
             style="fill:#ffffff;stroke-width:0.75"
             id="rect4790"
             width="10.968129"
             height="1.65121"
             x="-5.5314503"
             y="29.597612"
             transform="scale(1,-1)" />
          <rect
             style="fill:#ffffff;stroke-width:0.75"
             id="rect4792"
             width="9.4296503"
             height="0.9549461"
             x="-4.8128576"
             y="30.843645"
             transform="scale(1,-1)" />
          <rect
             style="fill:#ffffff;stroke-width:0.75"
             id="rect4794"
             width="0.38723373"
             height="0.15637207"
             x="4.4784913"
             y="31.669788"
             transform="scale(1,-1)" />
          <path
             style="fill:#1b1817;fill-opacity:1;fill-rule:evenodd;stroke:none"
             d="m 0,0 c -8.995,0 -16.288,-7.293 -16.288,-16.29 0,-7.197 4.667,-13.302 11.14,-15.457 0.815,-0.149 1.112,0.354 1.112,0.786 0,0.386 -0.014,1.411 -0.022,2.77 -4.531,-0.984 -5.487,2.184 -5.487,2.184 -0.741,1.881 -1.809,2.382 -1.809,2.382 -1.479,1.011 0.112,0.991 0.112,0.991 1.635,-0.116 2.495,-1.679 2.495,-1.679 1.453,-2.489 3.813,-1.77 4.741,-1.354 0.148,1.053 0.568,1.771 1.034,2.178 -3.617,0.411 -7.42,1.809 -7.42,8.051 0,1.778 0.635,3.232 1.677,4.371 -0.168,0.412 -0.727,2.068 0.159,4.311 0,0 1.368,0.438 4.48,-1.67 1.299,0.361 2.693,0.542 4.078,0.548 1.383,-0.006 2.777,-0.187 4.078,-0.548 3.11,2.108 4.475,1.67 4.475,1.67 0.889,-2.243 0.33,-3.899 0.162,-4.311 1.044,-1.139 1.675,-2.593 1.675,-4.371 0,-6.258 -3.809,-7.635 -7.438,-8.038 0.585,-0.503 1.106,-1.497 1.106,-3.017 0,-2.177 -0.02,-3.934 -0.02,-4.468 0,-0.436 0.293,-0.943 1.12,-0.784 6.468,2.159 11.131,8.26 11.131,15.455 C 16.291,-7.293 8.997,0 0,0"
             id="path80" />
        </g>
      </g>
    </g>
  </g>
</svg>
