<?xml version="1.0" encoding="UTF-8" standalone="no"?>
<svg
   viewBox="0 0 111.78668 127.38666"
   height="127.38666"
   width="111.78668"
   xml:space="preserve"
   version="1.1"
   id="svg3355"
   xmlns="http://www.w3.org/2000/svg"
   xmlns:svg="http://www.w3.org/2000/svg"><defs
   id="defs54" />
  <g
   transform="matrix(1.3333333,0,0,-1.3333333,-458.69198,935.79824)"
   id="g3363">
    <g
   transform="translate(420.064,651.1567)"
   id="g3365">
      <path
   id="path3367"
   style="fill:#6441a5;fill-opacity:1;fill-rule:evenodd;stroke:none"
   d="m 0,0 -13.652,-13.651 h -21.445 l -11.699,-11.697 v 11.697 H -64.344 V 42.893 H 0 Z m -72.146,50.692 -3.899,-15.599 v -70.19 h 17.55 v -9.751 h 9.746 l 9.752,9.751 h 15.596 L 7.795,-3.905 v 54.597 z" />
    </g>
    <path
   id="path3369"
   style="fill:#6441a5;fill-opacity:1;fill-rule:evenodd;stroke:none"
   d="m 377.167,655.053 h 7.799 v 23.401 h -7.799 z m 21.446,0 h 7.799 v 23.401 h -7.799 z" />
  </g>
<path
   style="fill:#ffffff;stroke-width:0.206242"
   d="M 38.979737,93.684422 V 85.79667 H 27.223943 15.46815 V 48.054385 10.3121 h 43.001456 43.001454 v 28.720076 28.720077 l -9.023954,9.022209 -9.023957,9.022208 H 69.09119 54.759234 l -7.889748,7.887752 -7.889749,7.887748 z m 15.46815,-46.867489 v -15.46815 h -5.052929 -5.052929 v 15.46815 15.46815 h 5.052929 5.052929 z m 28.667637,0 v -15.46815 h -5.15605 -5.156049 v 15.46815 15.46815 h 5.156049 5.15605 z"
   id="path2435" /></svg>
