<svg xmlns="http://www.w3.org/2000/svg" width="554.25" height="160.5" fill="none" viewBox="0 0 2956 856"><script/><svg xmlns="http://www.w3.org/2000/svg" width="256" height="256" viewBox="0 0 256 256"><rect width="256" height="256" fill="#e43717" rx="60"/><path fill="#fff" d="m226.574 125.551-8.39-5.198q-.107-1.227-.239-2.446l7.224-6.727a2.88 2.88 0 0 0 .864-2.676 2.87 2.87 0 0 0-1.821-2.14l-9.232-3.44c-.231-.799-.474-1.592-.722-2.389l5.753-7.988a2.88 2.88 0 0 0 .325-2.79 2.9 2.9 0 0 0-2.198-1.747l-9.729-1.583a72 72 0 0 0-1.17-2.178l4.091-8.982a2.89 2.89 0 0 0-.226-2.81 2.87 2.87 0 0 0-2.504-1.282l-9.881.344q-.765-.958-1.56-1.892l2.275-9.613a2.896 2.896 0 0 0-3.485-3.483l-9.613 2.274a83 83 0 0 0-1.896-1.56l.346-9.88c.038-1-.45-1.95-1.283-2.504a2.9 2.9 0 0 0-2.81-.227l-8.964 4.09q-1.086-.599-2.178-1.172l-1.587-9.727a2.87 2.87 0 0 0-1.747-2.198 2.88 2.88 0 0 0-2.79.325l-7.989 5.752a97 97 0 0 0-2.37-.72l-3.441-9.23a2.89 2.89 0 0 0-2.14-1.826 2.9 2.9 0 0 0-2.676.864l-6.728 7.224a87 87 0 0 0-2.446-.239l-5.199-8.409A2.9 2.9 0 0 0 127.972 28c-1.009 0-1.93.518-2.446 1.368l-5.199 8.41c-.818.066-1.636.148-2.446.238l-6.728-7.224a2.9 2.9 0 0 0-2.676-.864 2.88 2.88 0 0 0-2.141 1.825l-3.44 9.23c-.799.23-1.59.473-2.37.721l-7.99-5.752a2.87 2.87 0 0 0-2.79-.325A2.9 2.9 0 0 0 88 37.825l-1.586 9.727q-1.1.571-2.179 1.172l-8.964-4.09a2.893 2.893 0 0 0-4.092 2.731l.344 9.88a92 92 0 0 0-1.896 1.56l-9.614-2.274a2.91 2.91 0 0 0-2.714.77c-.71.709-1 1.731-.77 2.713l2.255 9.613a93 93 0 0 0-1.556 1.892l-9.88-.344a2.9 2.9 0 0 0-2.505 1.282 2.9 2.9 0 0 0-.227 2.81l4.09 8.982q-.599 1.08-1.172 2.178l-9.728 1.583a2.87 2.87 0 0 0-2.198 1.747 2.89 2.89 0 0 0 .325 2.79l5.753 7.988a82 82 0 0 0-.723 2.389l-9.231 3.44a2.89 2.89 0 0 0-1.822 2.14 2.89 2.89 0 0 0 .864 2.676l7.225 6.727q-.135 1.22-.239 2.446l-8.39 5.198a2.89 2.89 0 0 0-1.37 2.465c0 1.011.518 1.931 1.369 2.447l8.39 5.198q.105 1.228.239 2.446l-7.225 6.727a2.888 2.888 0 0 0 .958 4.816l9.231 3.44c.23.799.472 1.592.723 2.389l-5.753 7.988a2.886 2.886 0 0 0 1.892 4.537l9.729 1.582q.57 1.107 1.171 2.179l-4.09 8.963a2.892 2.892 0 0 0 2.731 4.091l9.862-.345a95 95 0 0 0 1.56 1.895l-2.255 9.613c-.23.975.06 1.988.77 2.695a2.89 2.89 0 0 0 2.714.768l9.614-2.255a78 78 0 0 0 1.896 1.556l-.344 9.88a2.88 2.88 0 0 0 1.282 2.503c.83.556 1.893.641 2.81.224l8.964-4.09q1.083.602 2.179 1.172l1.586 9.727c.16.99.822 1.827 1.747 2.217.923.384 1.988.26 2.79-.323l7.99-5.752c.789.25 1.582.495 2.389.724l3.44 9.23a2.88 2.88 0 0 0 2.141 1.822 2.88 2.88 0 0 0 2.676-.864l6.728-7.224c.812.094 1.63.172 2.446.245l5.199 8.389a2.89 2.89 0 0 0 2.446 1.369c.992 0 1.931-.52 2.466-1.369l5.199-8.389a94 94 0 0 0 2.446-.245l6.728 7.224a2.88 2.88 0 0 0 2.676.864 2.87 2.87 0 0 0 2.14-1.822l3.441-9.23c.798-.229 1.592-.474 2.389-.724l7.989 5.752a2.885 2.885 0 0 0 4.537-1.894l1.587-9.727c.734-.381 1.46-.776 2.179-1.172l8.964 4.09a2.89 2.89 0 0 0 4.092-2.727l-.344-9.88a80 80 0 0 0 1.894-1.556l9.613 2.255a2.89 2.89 0 0 0 2.715-.768 2.87 2.87 0 0 0 .77-2.695l-2.256-9.613a76 76 0 0 0 1.556-1.895l9.882.345a2.87 2.87 0 0 0 2.503-1.282 2.88 2.88 0 0 0 .226-2.809l-4.09-8.963q.6-1.086 1.17-2.179l9.728-1.582a2.86 2.86 0 0 0 2.198-1.747 2.88 2.88 0 0 0-.325-2.79l-5.753-7.988c.249-.79.491-1.583.723-2.389l9.231-3.44a2.88 2.88 0 0 0 1.822-2.141 2.88 2.88 0 0 0-.864-2.675l-7.225-6.727q.132-1.22.239-2.446l8.391-5.198a2.88 2.88 0 0 0 1.368-2.447c0-.991-.516-1.93-1.367-2.465zm-56.192 69.755c-3.211-.692-5.237-3.861-4.549-7.071a5.94 5.94 0 0 1 7.053-4.568c3.211.686 5.256 3.86 4.568 7.071a5.94 5.94 0 0 1-7.053 4.568zm-2.848-19.302c-2.924-.627-5.81 1.234-6.422 4.166l-2.981 13.912c-9.194 4.167-19.496 6.498-30.199 6.498-11.009 0-21.406-2.427-30.772-6.784l-2.981-13.913c-.627-2.924-3.498-4.797-6.422-4.166l-12.29 2.637a74 74 0 0 1-6.346-7.491h59.824c.677 0 1.128-.122 1.128-.738v-21.213c0-.615-.451-.737-1.128-.737h-17.488v-13.397h18.902c1.726 0 9.232.493 11.621 10.09.751 2.943 2.408 12.537 3.536 15.614 1.124 3.44 5.696 10.32 10.57 10.32h29.816c.338 0 .699-.039 1.08-.107a75 75 0 0 1-6.766 7.95l-12.577-2.695zm-82.759 19.015a5.933 5.933 0 0 1-7.053-4.568c-.686-3.21 1.354-6.383 4.568-7.071a5.94 5.94 0 0 1 7.053 4.568c.686 3.211-1.355 6.383-4.568 7.071m-22.744-91.923a5.96 5.96 0 0 1-3.02 7.854 5.94 5.94 0 0 1-7.837-3.019c-1.337-2.997.023-6.517 3.02-7.855a5.94 5.94 0 0 1 7.837 3.02m-6.977 16.512 12.806-5.695c2.733-1.214 3.976-4.415 2.752-7.148l-2.637-5.962h10.359v46.63H57.501a73.3 73.3 0 0 1-2.79-20.066 74 74 0 0 1 .418-7.855zm56.193-4.53v-13.759h24.655c1.275 0 9.002 1.473 9.002 7.243 0 4.796-5.925 6.516-10.798 6.516H111.17zm89.639 12.384c0 1.827-.067 3.631-.2 5.428h-7.512c-.751 0-1.053.493-1.053 1.228v3.44c0 8.103-4.568 9.881-8.582 10.32-3.822.43-8.046-1.597-8.562-3.937-2.256-12.67-6.002-15.365-11.927-20.066 7.359-4.663 15.004-11.562 15.004-20.831 0-9.956-6.823-16.225-11.468-19.302-6.536-4.3-13.761-5.16-15.711-5.16H73.277c10.53-11.733 24.847-20.066 40.901-23.124l9.156 9.594a5.415 5.415 0 0 0 7.664.176l10.244-9.785c21.407 3.994 39.564 17.334 50.076 35.737l-7.014 15.824c-1.21 2.733.025 5.944 2.752 7.148l13.494 6c.233 2.389.355 4.816.355 7.262zm-77.598-80.074a5.923 5.923 0 0 1 8.39.193 5.96 5.96 0 0 1-.197 8.409 5.92 5.92 0 0 1-8.39-.195 5.96 5.96 0 0 1 .197-8.409zm69.571 55.995a5.927 5.927 0 0 1 7.836-3.02 5.95 5.95 0 0 1 3.02 7.855 5.93 5.93 0 0 1-7.836 3.019 5.95 5.95 0 0 1-3.02-7.854"/></svg><svg xmlns="http://www.w3.org/2000/svg" width="256" height="256" transform="translate(300)" viewBox="0 0 256 256"><rect width="256" height="256" fill="#00599c" rx="60"/><path fill="#fff" d="M110.759 210.517C65.125 210.517 28 173.392 28 127.759 28 82.125 65.125 45 110.759 45c29.445 0 56.908 15.846 71.668 41.353l-35.816 20.726c-7.387-12.768-21.126-20.7-35.852-20.7-22.817 0-41.38 18.563-41.38 41.38 0 22.816 18.563 41.379 41.38 41.379 14.727 0 28.466-7.932 35.854-20.702l35.816 20.725c-14.76 25.51-42.223 41.356-71.67 41.356"/><path fill="#fff" d="M193.517 123.161h-9.196v-9.196h-9.194v9.196h-9.196v9.195h9.196v9.196h9.194v-9.196h9.196zm34.483 0h-9.196v-9.196h-9.194v9.196h-9.196v9.195h9.196v9.196h9.194v-9.196H228z"/></svg><svg xmlns="http://www.w3.org/2000/svg" width="256" height="256" transform="translate(600)" viewBox="0 0 256 256"><rect width="256" height="256" fill="#242938" rx="60"/><path fill="url(#a)" d="M127.279 29c-50.772 0-47.602 22.018-47.602 22.018l.057 22.81h48.451v6.85H60.489S28 76.992 28 128.221s28.357 49.414 28.357 49.414h16.924v-23.773s-.912-28.357 27.905-28.357h48.054s26.999.436 26.999-26.094V55.546S180.338 29 127.279 29m-26.716 15.339a8.71 8.71 0 0 1 8.717 8.717 8.71 8.71 0 0 1-8.717 8.716 8.71 8.71 0 0 1-8.716-8.716 8.71 8.71 0 0 1 8.716-8.717"/><path fill="url(#b)" d="M128.721 227.958c50.772 0 47.602-22.017 47.602-22.017l-.057-22.811h-48.451v-6.849h67.696S228 179.966 228 128.736s-28.357-49.413-28.357-49.413h-16.924v23.773s.912 28.357-27.905 28.357H106.76s-27-.437-27 26.093v43.866s-4.099 26.546 48.961 26.546m26.716-15.339a8.71 8.71 0 0 1-8.717-8.716 8.71 8.71 0 0 1 8.717-8.717 8.71 8.71 0 0 1 8.717 8.717 8.71 8.71 0 0 1-8.717 8.716"/><defs><linearGradient id="a" x1="47.22" x2="146.333" y1="46.896" y2="145.02" gradientUnits="userSpaceOnUse"><stop stop-color="#387eb8"/><stop offset="1" stop-color="#366994"/></linearGradient><linearGradient id="b" x1="108.056" x2="214.492" y1="109.905" y2="210.522" gradientUnits="userSpaceOnUse"><stop stop-color="#ffe052"/><stop offset="1" stop-color="#ffc331"/></linearGradient></defs></svg><svg xmlns="http://www.w3.org/2000/svg" width="256" height="256" transform="translate(900)" viewBox="0 0 256 256"><rect width="256" height="256" fill="#e14e1d" rx="60"/><path fill="#fff" d="m48 38 8.61 96.593h110.71l-3.715 41.43-35.646 9.638-35.579-9.624-2.379-26.602H57.94l4.585 51.281 65.427 18.172 65.51-18.172 8.783-98.061H85.824l-2.923-32.71h122.238L208 38z"/><path fill="#ebebeb" d="M128 38H48l8.61 96.593H128v-31.938H85.824l-2.923-32.71H128zm0 147.647-.041.014-35.579-9.624-2.379-26.602H57.94l4.585 51.281 65.427 18.172.049-.014z"/></svg><svg xmlns="http://www.w3.org/2000/svg" width="256" height="256" transform="translate(1200)" viewBox="0 0 256 256"><rect width="256" height="256" fill="#0277bd" rx="60"/><path fill="#ebebeb" d="m53.753 102.651 2.862 31.942h71.481v-31.942zM128.095 38H48l2.904 31.942h77.191zm0 180.841v-33.233l-.14.037-35.574-9.605-2.274-25.476H58.042l4.475 50.154 65.431 18.164z"/><path fill="#fff" d="m167.318 134.593-3.708 41.426-35.625 9.616v33.231l65.483-18.148.48-5.397 7.506-84.092.779-8.578L208 38h-80.015v31.942h45.009l-2.906 32.709h-42.103v31.942z"/></svg><svg xmlns="http://www.w3.org/2000/svg" width="256" height="256" transform="translate(1500)" viewBox="0 0 256 256"><rect width="256" height="256" fill="#cd6799" rx="60"/><g clip-path="url(#c)"><path fill="#fff" d="M200.107 139.163c-6.974.036-13.034 1.716-18.109 4.198-1.862-3.687-3.724-6.973-4.053-9.383-.365-2.811-.803-4.527-.365-7.886s2.41-8.141 2.373-8.506-.438-2.081-4.454-2.118-7.484.767-7.886 1.826c-.402 1.058-1.168 3.468-1.679 5.951-.694 3.651-8.033 16.685-12.231 23.512-1.351-2.665-2.519-5.002-2.775-6.864-.365-2.811-.803-4.527-.365-7.886s2.41-8.142 2.373-8.507-.438-2.081-4.454-2.117-7.485.766-7.886 1.825c-.402 1.059-.84 3.542-1.68 5.951-.839 2.41-10.587 24.17-13.143 29.792a168 168 0 0 1-3.249 6.754s-.037.11-.146.292a91 91 0 0 1-1.096 2.081v.037c-.547.986-1.132 1.898-1.424 1.898-.219 0-.62-2.628.073-6.206 1.461-7.558 4.929-19.314 4.893-19.715 0-.219.657-2.264-2.264-3.323-2.848-1.059-3.87.694-4.126.694-.255 0-.438.621-.438.621s3.177-13.217-6.06-13.217c-5.769 0-13.728 6.316-17.67 12.012a5003 5003 0 0 0-13.437 7.338c-2.153 1.205-4.38 2.41-6.462 3.542-.146-.146-.292-.329-.438-.475-11.172-11.939-31.836-20.372-30.96-36.4.329-5.842 2.337-21.176 39.686-39.796 30.741-15.151 55.203-10.953 59.438-1.643 6.06 13.29-13.107 37.97-44.87 41.548-12.122 1.351-18.474-3.322-20.08-5.074-1.68-1.826-1.936-1.935-2.557-1.57-1.022.547-.365 2.19 0 3.139.95 2.483 4.856 6.864 11.464 9.018 5.842 1.899 20.044 2.958 37.24-3.687 19.241-7.448 34.283-28.15 29.865-45.491-4.417-17.598-33.625-23.403-61.263-13.582-16.43 5.842-34.246 15.042-47.061 27.017-15.225 14.24-17.634 26.616-16.648 31.8 3.541 18.401 28.915 30.376 39.065 39.248-.511.292-.986.548-1.387.767-5.075 2.519-24.425 12.632-29.245 23.33-5.476 12.121.877 20.81 5.075 21.978 13.034 3.615 26.433-2.884 33.626-13.618s6.316-24.68 2.993-31.069a.8.8 0 0 0-.146-.219c1.315-.767 2.665-1.57 3.98-2.337a196 196 0 0 1 7.338-4.126c-1.241 3.396-2.154 7.448-2.592 13.29-.547 6.864 2.264 15.772 5.951 19.277 1.643 1.533 3.578 1.57 4.82 1.57 4.308 0 6.243-3.578 8.397-7.813 2.628-5.185 5.002-11.209 5.002-11.209s-2.958 16.284 5.074 16.284c2.921 0 5.878-3.797 7.193-5.732v.036s.073-.109.219-.365c.292-.475.474-.767.474-.767v-.073c1.169-2.044 3.797-6.681 7.704-14.385 5.038-9.93 9.894-22.343 9.894-22.343s.438 3.03 1.935 8.068c.876 2.958 2.702 6.207 4.162 9.347-1.168 1.643-1.898 2.555-1.898 2.555l.036.037c-.949 1.241-1.971 2.592-3.103 3.906-3.98 4.747-8.726 10.187-9.383 11.757-.767 1.862-.584 3.212.876 4.308 1.059.803 2.957.912 4.892.803 3.578-.256 6.098-1.132 7.339-1.68 1.935-.693 4.199-1.752 6.316-3.322 3.907-2.884 6.28-7.01 6.061-12.45-.11-2.994-1.096-5.987-2.3-8.799.365-.511.693-1.022 1.058-1.533 6.171-9.018 10.953-18.912 10.953-18.912s.438 3.03 1.935 8.069c.73 2.555 2.227 5.33 3.542 8.032-5.805 4.71-9.383 10.186-10.661 13.764-2.3 6.645-.511 9.638 2.884 10.332 1.534.329 3.724-.401 5.331-1.095 2.044-.657 4.454-1.789 6.754-3.469 3.906-2.884 7.667-6.9 7.448-12.34-.11-2.482-.767-4.929-1.68-7.302 4.929-2.044 11.282-3.176 19.387-2.227 17.379 2.045 20.811 12.888 20.153 17.452-.657 4.563-4.308 7.046-5.513 7.813-1.204.767-1.606 1.022-1.496 1.57.146.803.73.766 1.752.62 1.424-.255 9.127-3.687 9.456-12.084.548-10.734-9.675-22.454-27.747-22.344M66.043 184.362c-5.768 6.279-13.8 8.653-17.269 6.645-3.724-2.155-2.264-11.428 4.82-18.073 4.307-4.052 9.857-7.813 13.544-10.113.84-.511 2.081-1.241 3.578-2.154.256-.146.402-.219.402-.219l.876-.548c2.592 9.493.11 17.854-5.95 24.462m41.986-28.551c-2.008 4.893-6.206 17.415-8.762 16.722-2.19-.585-3.541-10.077-.438-19.46 1.57-4.71 4.892-10.332 6.827-12.523 3.14-3.505 6.608-4.673 7.448-3.249 1.059 1.862-3.833 15.443-5.075 18.51m34.648 16.576c-.84.438-1.643.73-2.008.511-.256-.146.365-.73.365-.73s4.345-4.674 6.061-6.791c.985-1.242 2.154-2.702 3.395-4.345v.475c0 5.586-5.403 9.346-7.813 10.88m26.725-6.098c-.621-.438-.511-1.898 1.57-6.462.803-1.789 2.702-4.782 5.951-7.667.365 1.169.621 2.3.584 3.359-.036 7.047-5.075 9.675-8.105 10.77"/></g><defs><clipPath id="c"><path fill="#fff" d="M28 53h200v149.909H28z"/></clipPath></defs></svg><svg xmlns="http://www.w3.org/2000/svg" width="256" height="256" transform="translate(1800)" viewBox="0 0 256 256"><rect width="256" height="256" fill="#242938" rx="60"/><path fill="#242938" fill-rule="evenodd" d="m203.819 68.835-63.14-37.48a23.79 23.79 0 0 0-24.361 0l-63.14 37.48C45.642 73.31 41 81.575 41 90.522v74.961c0 8.945 4.643 17.215 12.18 21.689l63.14 37.473a23.8 23.8 0 0 0 12.179 3.354 23.8 23.8 0 0 0 12.178-3.354l63.14-37.473c7.536-4.474 12.182-12.744 12.182-21.689v-74.96c0-8.948-4.646-17.214-12.18-21.688" clip-rule="evenodd"/><path fill="#fff" fill-rule="evenodd" d="m118.527 220.808-63.14-37.474c-6.176-3.666-10.013-10.506-10.013-17.852V90.523c0-7.346 3.837-14.186 10.01-17.85l63.143-37.48a19.55 19.55 0 0 1 9.972-2.747c3.495 0 6.943.95 9.973 2.747l63.14 37.48c5.204 3.089 8.714 8.438 9.701 14.437-2.094-4.469-6.817-5.684-12.32-2.47l-59.734 36.897c-7.448 4.354-12.94 9.24-12.945 18.221v73.604c-.004 5.378 2.168 8.861 5.504 9.871-1.096.19-2.201.322-3.319.322a19.55 19.55 0 0 1-9.972-2.747m85.292-151.974-63.14-37.478A23.8 23.8 0 0 0 128.499 28a23.8 23.8 0 0 0-12.181 3.356l-63.14 37.478C45.642 73.308 41 81.576 41 90.524v74.958c0 8.945 4.643 17.215 12.18 21.689l63.14 37.475A23.84 23.84 0 0 0 128.499 228a23.83 23.83 0 0 0 12.178-3.354l63.142-37.475c7.536-4.474 12.18-12.744 12.18-21.689V90.523c0-8.947-4.644-17.215-12.18-21.689" clip-rule="evenodd"/><path fill="#47b353" fill-rule="evenodd" d="m187.267 172.729-15.722 9.41c-.417.243-.723.516-.726 1.017v4.114c0 .503.338.712.754.467l15.966-9.703c.416-.243.48-.708.483-1.209v-3.629c0-.5-.338-.71-.755-.467" clip-rule="evenodd"/><path fill="#242938" fill-rule="evenodd" d="M153.788 138.098c.509-.258.928.059.935.725l.053 5.439c2.277-.906 4.255-1.148 6.047-.734.389.104.561.633.402 1.261l-1.197 4.82c-.093.364-.298.732-.545.961a1.3 1.3 0 0 1-.315.234.7.7 0 0 1-.472.077c-.818-.185-2.763-.61-5.823.94-3.21 1.625-4.333 4.414-4.311 6.484.027 2.472 1.295 3.221 5.673 3.296 5.834.097 8.355 2.646 8.416 8.522.06 5.77-3.02 11.966-7.732 15.763l.104 5.384c.006.648-.415 1.391-.924 1.649l-3.189 1.837c-.511.258-.93-.06-.937-.708l-.055-5.296c-2.731 1.135-5.499 1.409-7.267.699-.333-.13-.476-.622-.344-1.182l1.156-4.868c.092-.384.295-.768.571-1.012q.147-.142.299-.219c.183-.092.362-.112.514-.055 1.905.642 4.342.342 6.685-.844 2.977-1.506 4.968-4.542 4.937-7.558-.029-2.737-1.51-3.874-5.113-3.901-4.586.013-8.861-.891-8.932-7.642-.057-5.558 2.833-11.342 7.408-14.999l-.057-5.435c-.007-.668.401-1.403.926-1.667z" clip-rule="evenodd"/></svg><svg xmlns="http://www.w3.org/2000/svg" width="256" height="256" transform="translate(2100)" viewBox="0 0 256 256"><rect width="256" height="256" fill="#242938" rx="60"/><g clip-path="url(#d)"><path fill="navy" d="M204.453 128.02c0-42.196-34.258-76.45-76.453-76.45s-76.453 34.254-76.453 76.45c0 42.199 34.258 76.453 76.453 76.453s76.453-34.254 76.453-76.453"/><path fill="#fff" d="M182.066 96.344c0-12.356-10.031-22.387-22.386-22.387-12.356 0-22.387 10.031-22.387 22.387 0 12.351 10.031 22.386 22.387 22.386s22.386-10.035 22.386-22.386"/><path fill="navy" d="M226.84 51.547c0-12.356-10.031-22.387-22.387-22.387s-22.387 10.031-22.387 22.387 10.032 22.387 22.387 22.387 22.387-10.008 22.387-22.387"/><path fill="#fff" d="M82.508 160.586h24.773v5.641H76.109v-50.161h6.399zm54.363 5.641v-5.028c-3.379 4.754-6.738 6.61-12.039 6.61-7.012 0-11.488-3.844-11.488-9.84v-27.793h5.703v25.531c0 4.332 2.89 7.098 7.433 7.098 5.977 0 9.84-4.817 9.84-12.188v-20.441h5.703v36.051zm47.074.972c-1.859.485-2.746.61-3.929.61-3.715 0-5.512-1.645-5.914-5.301-4.055 3.719-7.707 5.301-12.247 5.301-7.289 0-11.828-4.118-11.828-10.664 0-4.688 2.133-7.918 6.336-9.629 2.196-.887 3.442-1.164 11.551-2.2 4.543-.546 5.977-1.582 5.977-3.988v-1.523c0-3.442-2.891-5.364-8.043-5.364-5.368 0-7.985 1.985-8.469 6.399h-5.789c.148-3.57.824-5.637 2.472-7.496 2.407-2.684 6.735-4.203 11.973-4.203 8.871 0 13.559 3.441 13.559 9.839v21.208c0 1.792 1.097 2.828 3.105 2.828.336 0 .614 0 1.246-.149zm-10.054-18.797c-1.922.887-3.168 1.16-9.227 1.985-6.125.886-8.68 2.828-8.68 6.609 0 3.656 2.618 5.789 7.094 5.789 3.379 0 6.188-1.101 8.535-3.234 1.707-1.582 2.278-2.742 2.278-4.688z"/><path stroke="gray" stroke-dasharray="8.63 8.63" stroke-miterlimit="10" stroke-width="2.294" d="M216.09 83.121A98.9 98.9 0 0 1 226.859 128c0 54.574-44.285 98.859-98.859 98.859S29.14 182.574 29.14 128 73.427 29.14 128 29.14a98.93 98.93 0 0 1 49.883 13.497"/></g><defs><clipPath id="d"><path fill="#fff" d="M28 28h200v200H28z"/></clipPath></defs></svg><svg xmlns="http://www.w3.org/2000/svg" width="256" height="256" transform="translate(2400)" viewBox="0 0 256 256"><rect width="256" height="256" fill="#242938" rx="60"/><path stroke="#fff" stroke-width="10" d="M217 69H39c-5.523 0-10 4.477-10 10v98c0 5.523 4.477 10 10 10h178c5.523 0 10-4.477 10-10V79c0-5.523-4.477-10-10-10Z"/><path fill="#fff" d="M54 162V94h20l20 25 20-25h20v68h-20v-39l-20 25-20-25v39zm125 0-30-33h20V94h20v35h20z"/></svg><svg xmlns="http://www.w3.org/2000/svg" width="256" height="256" transform="translate(2700)" viewBox="0 0 256 256"><g clip-path="url(#e)"><path fill="#654ff0" d="M157.281 0v1.38c0 16.214-13.143 29.353-29.352 29.353-16.213 0-29.352-13.143-29.352-29.353V0H0v256h256V0z"/><path fill="#fff" d="M59.466 137.96h16.966l11.583 61.687h.209l13.921-61.687h15.87l12.574 62.444h.247l13.202-62.444h16.64l-21.622 90.641h-16.837l-12.47-61.687h-.326l-13.348 61.687h-17.15zm120.34 0h26.747l26.562 90.641h-17.502l-5.777-20.17h-30.469l-4.459 20.17h-17.046zm10.182 22.341-7.4 33.255h23.032l-8.496-33.255z"/></g><defs><clipPath id="e"><rect width="256" height="256" fill="#fff" rx="60"/></clipPath></defs></svg><svg xmlns="http://www.w3.org/2000/svg" width="256" height="256" transform="translate(0 300)" viewBox="0 0 256 256"><rect width="256" height="256" fill="#242938" rx="60"/><path fill="url(#f)" d="M218 218H38V38h180l-90 90z"/><defs><linearGradient id="f" x1="218" x2="38" y1="38" y2="218" gradientUnits="userSpaceOnUse"><stop offset=".003" stop-color="#e44857"/><stop offset=".469" stop-color="#c711e1"/><stop offset="1" stop-color="#7f52ff"/></linearGradient></defs></svg><svg xmlns="http://www.w3.org/2000/svg" width="256" height="256" transform="translate(300 300)" viewBox="0 0 256 256"><rect width="256" height="256" fill="#242938" rx="60"/><path fill="#fff" d="M101.634 182.619s-7.68 4.674 5.345 6.011c15.728 2.004 24.044 1.669 41.407-1.668 0 0 4.674 3.009 11.02 5.344-39.075 16.696-88.497-1.002-57.772-9.687m-5.009-21.705s-8.35 6.346 4.674 7.679c17.028 1.669 30.391 2.004 53.433-2.667 0 0 3.009 3.341 8.015 5.01-47.083 14.025-99.85 1.333-66.122-10.019zm92.17 38.07s5.676 4.674-6.346 8.35c-22.376 6.678-93.839 8.685-113.876 0-7.009-3.009 6.347-7.352 10.686-8.015 4.342-1.002 6.678-1.002 6.678-1.002-7.68-5.344-51.095 11.02-22.041 15.729 79.813 13.027 145.603-5.676 124.896-15.028zm-83.488-60.781s-36.402 8.685-13.028 11.687c10.019 1.333 29.721 1.002 48.089-.335 15.028-1.334 30.09-4.007 30.09-4.007s-5.345 2.338-9.017 4.674c-37.099 9.693-108.23 5.351-87.858-4.668 17.37-8.35 31.724-7.351 31.724-7.351m65.116 36.401c37.407-19.37 20.037-38.07 8.015-35.731-3.009.667-4.342 1.334-4.342 1.334s1.001-2.004 3.34-2.667c23.709-8.35 42.413 25.046-7.679 38.07 0 0 .335-.335.666-1.002zm-61.444 52.76c36.067 2.339 91.168-1.334 92.505-18.369 0 0-2.667 6.678-29.72 11.688-30.722 5.676-68.796 5.009-91.168 1.333 0 0 4.674 4.007 28.386 5.344z"/><path fill="#f58219" d="M147.685 28s20.704 21.039-19.702 52.76c-32.394 25.712-7.351 40.408 0 57.101-19.035-17.028-32.722-32.059-23.377-46.085C118.331 71.083 156.062 61.064 147.685 28M137 123.842c9.683 11.02-2.667 21.039-2.667 21.039s24.711-12.686 13.359-28.387c-10.354-15.028-18.368-22.376 25.046-47.425 0 0-68.46 17.028-35.731 54.766z"/></svg><svg xmlns="http://www.w3.org/2000/svg" width="256" height="256" transform="translate(600 300)" viewBox="0 0 256 256"><rect width="256" height="256" fill="#242938" rx="60"/><path fill="#fff" fill-rule="evenodd" d="M121.352 30.254c-1.209 7.638-7.266 8.044-9.682.65-1.644-5.03-5.713-4.89-5.211.18.765 7.724-5.259 10.268-9.03 3.813-1.356-2.321-2.629-3.408-3.566-3.045-.801.31-1.77.564-2.155.564s-.525 1.836-.313 4.08c.687 7.277-3.74 9.417-8.259 3.993-3.442-4.132-7.167-2.828-5.404 1.89 2.613 6.992-1.95 10.727-7.611 6.229-2.094-1.663-3.03-1.86-4.658-.98-2.436 1.317-2.402 1-.517 4.816 2.89 5.853-1.126 9.016-7.003 5.514-4.916-2.93-7.62-.283-4.537 4.442 3.9 5.974.348 10.452-5.823 7.343-4.294-2.164-6.389 1.009-3.292 4.986 4.162 5.344 1.093 10.56-4.876 8.288-1.32-.503-2.466-.787-2.546-.632s-.71 1.032-1.4 1.948c-1.059 1.404-.761 2.165 1.896 4.85 3.922 3.96 2.529 7.466-3.192 8.033-5.594.554-6.546 3.798-1.899 6.469 4.839 2.781 2.604 8.929-3.245 8.929-3.042 0-2.193 4.328 1.235 6.298 4.199 2.414 4.196 6.623-.007 8.225-3.24 1.236-4.565 6.796-1.619 6.796 5.842 0 6.571 7.041.953 9.199-1.736.667-2.36 1.49-1.948 2.572.332.876.604 2.012.604 2.524 0 .513 1.267.932 2.814.932 5.565 0 7.066 5.041 2.578 8.656-3.14 2.528-2.025 6.82 1.527 5.881 5.266-1.39 7.952 4.202 4.04 8.408-3.13 3.366-1.375 5.804 4.253 5.907 5.096.094 6.333 2.778 3.38 7.331-2.417 3.727.201 6.776 4.433 5.163 5.155-1.966 8.235 2.434 5.152 7.359-1.8 2.874 1.679 5.305 5.062 3.539 5.51-2.879 9.005-.313 6.963 5.112-1.303 3.464-1.342 3.3 1.088 4.614 1.619.875 2.475.803 3.77-.317 4.65-4.024 8.82-1.905 7.871 4-.787 4.906 2.255 6.424 5.766 2.878 4.045-4.086 9.79-.998 8.367 4.497-.303 1.17.09 2.195.97 2.536 2.71 1.051 3.979.595 5.306-1.911 2.64-4.982 7.215-3.605 8.431 2.536.788 3.978 5.12 4.323 6.074.486 1.384-5.573 6.807-5.532 8.811.067 1.563 4.367 5.46 4.907 6.457.894 1.431-5.758 6.4-6.479 9.045-1.313 2.138 4.176 5.607 3.615 6.548-1.059 1.397-6.94 7.399-7.645 9.452-1.111.425 1.351 1.218 1.918 2.169 1.55.824-.319 1.889-.581 2.367-.581.477 0 1.005-2.17 1.173-4.822.389-6.113 4.1-7.369 7.786-2.636 3.206 4.116 5.584 2.274 5.586-4.326.001-5.972 2.748-7.18 7.782-3.422 3.913 2.922 6.521 1.048 4.823-3.465-2.657-7.057.644-10.327 6.751-6.688 5.229 3.117 7.078.757 3.941-5.029-3.25-5.992 1.325-9.702 7.007-5.682 4.051 2.866 6.517-1.698 2.95-5.459-4.643-4.896-3.398-7.706 3.414-7.706 6.739 0 7.613-1.815 3.081-6.393-5.137-5.189-3.306-8.763 4.183-8.165 5.655.453 6.888-3.108 1.811-5.233-7.674-3.21-5.521-9.608 3.15-9.36 2.498.073 5.154-3.882 3.093-4.605-9.535-3.345-10.991-9.414-2.637-10.998 4.767-.903 4.936-4.936.246-5.883-8.012-1.619-7.716-8.256.46-10.318 4.909-1.237 3.317-4.981-2.223-5.228-7.898-.352-9.429-6.603-2.368-9.667 1.528-.663 2.914-1.288 3.079-1.388 2.398-1.456-1.429-5.114-4.39-4.196-9.103 2.822-11.281-4.133-3.07-9.804 3.797-2.623.446-5.954-4.072-4.048-7.624 3.218-11.292-2.611-5.393-8.57 3.978-4.018 1.312-7.842-3.326-4.773-6.321 4.183-11.82-1.804-6.729-7.324 4.052-4.392.271-7.6-4.339-3.681-6.066 5.155-11.411 1.416-7.983-5.583 2.856-5.83-.131-9.554-3.842-4.788-6.278 8.062-11.724 4.098-8.437-6.141.542-1.69.191-2.276-1.655-2.766-1.287-.342-2.485-.199-2.66.317-2.951 8.703-12.975 7.145-10.783-1.677.932-3.749.923-3.77-1.983-4.555-1.97-.532-2.494-.294-2.494 1.132 0 2.618-3.848 7.156-6.068 7.156-2.431 0-3.982-2.942-3.982-7.548 0-1.99-.416-3.62-.923-3.62s-1.638-.276-2.513-.616c-1.056-.409-1.59-.05-1.59 1.066 0 9.005-9.027 10.659-10.645 1.949-.973-5.239-4.945-4.886-5.8.515m22.96 16.897c34.627 7.408 30.32 31.545-8.022 44.967-50.348 17.626-90.853 2.006-64.04-24.695 17.107-17.035 47.385-25.553 72.063-20.272zm39.213 28.914c2.489 2.78 2.205 8.147-.552 10.4-6.862 5.614-16.218-4.114-9.999-10.397 2.655-2.681 8.149-2.683 10.551-.002m11.951 17.656c16.914 7.139 18.608 46.224 3.241 74.804-9.355 17.4-25.18 30.239-34.392 27.904-27.178-6.89-2.731-99.318 27.526-104.073.156-.024 1.788.59 3.625 1.365m-128.426 8.25c5.134 5.186.396 14.192-6.286 11.949-6.04-2.026-7.02-9.943-1.599-12.914 3.834-2.101 4.99-1.96 7.885.965m65.472 6.752c9.225 2.346 16.627 13.655 14.764 22.557-4.179 19.965-31.11 22.888-38.196 4.146-5.881-15.553 7.467-30.764 23.432-26.703M74.639 126.58c30.758 15.295 60.989 60.199 50.809 75.472-11.968 17.959-54.98-4.489-71.37-37.246-15.376-30.736-4.615-50.744 20.56-38.226m72.752 63.648c4.074 4.115 2.933 9.423-2.514 11.702-5.884 2.462-11.601-4.246-8.605-10.098 2.448-4.781 7.283-5.479 11.119-1.604" clip-rule="evenodd"/></svg><svg xmlns="http://www.w3.org/2000/svg" width="256" height="256" transform="translate(900 300)" viewBox="0 0 256 256"><rect width="256" height="256" fill="#242938" rx="60"/><path fill="url(#g)" fill-rule="evenodd" d="M83 110q9-36 45-36c36 0 40.5 27 58.5 31.5q18 4.502 31.5-13.5-9 36-45 36c-36 0-40.5-27-58.5-31.5Q96.5 92 83 110m-45 54q9-36 45-36c36 0 40.5 27 58.5 31.5q18 4.502 31.5-13.5-9 36-45 36c-36 0-40.5-27-58.5-31.5q-18-4.502-31.5 13.5" clip-rule="evenodd"/><defs><linearGradient id="g" x1="86.5" x2="163.5" y1="74" y2="185.5" gradientUnits="userSpaceOnUse"><stop stop-color="#32b1c1"/><stop offset="1" stop-color="#14c6b7"/></linearGradient></defs></svg><svg xmlns="http://www.w3.org/2000/svg" width="256" height="256" transform="translate(1200 300)" viewBox="0 0 256 256"><rect width="256" height="256" fill="#242938" rx="60"/><path fill="#81cd39" d="M119.878 31.116c4.919-2.815 11.325-2.828 16.239 0 24.722 13.97 49.452 27.917 74.17 41.895 4.65 2.619 7.759 7.793 7.712 13.15v84.045c.035 5.579-3.382 10.877-8.287 13.436-24.641 13.893-49.27 27.802-73.907 41.695-5.019 2.87-11.554 2.649-16.418-.457-7.387-4.282-14.787-8.544-22.175-12.822-1.51-.9-3.212-1.616-4.278-3.08.943-1.27 2.628-1.428 3.997-1.983 3.083-.981 5.916-2.555 8.748-4.082.717-.49 1.591-.302 2.278.136 6.317 3.622 12.579 7.35 18.917 10.937 1.352.781 2.721-.256 3.877-.9 24.18-13.667 48.39-27.281 72.567-40.952.896-.431 1.391-1.382 1.318-2.363.017-27.725.004-55.454.009-83.18.102-1.112-.542-2.136-1.549-2.592-24.555-13.829-49.099-27.678-73.65-41.51a2.56 2.56 0 0 0-2.892-.005c-24.552 13.837-49.09 27.7-73.642 41.527-1.003.457-1.676 1.464-1.557 2.58.005 27.726 0 55.455 0 83.184a2.35 2.35 0 0 0 1.336 2.334c6.551 3.715 13.111 7.404 19.667 11.107 3.694 1.987 8.228 3.169 12.298 1.646 3.59-1.288 6.107-4.953 6.039-8.765.034-27.563-.017-55.13.025-82.69-.09-1.223 1.071-2.234 2.261-2.118 3.148-.022 6.3-.043 9.448.008 1.314-.03 2.218 1.288 2.056 2.52-.013 27.738.034 55.476-.021 83.213.008 7.393-3.029 15.437-9.867 19.054-8.423 4.363-18.835 3.438-27.157-.746-7.204-3.596-14.08-7.84-21.156-11.692-4.918-2.545-8.318-7.864-8.283-13.439V86.161c-.052-5.468 3.182-10.736 7.975-13.317 24.637-13.903 49.27-27.818 73.902-41.728"/><path fill="#81cd39" d="M141.372 89.335c10.745-.692 22.248-.41 31.917 4.884 7.487 4.056 11.637 12.57 11.769 20.887-.209 1.121-1.382 1.74-2.453 1.663-3.117-.004-6.236.043-9.353-.021-1.323.051-2.091-1.168-2.257-2.337-.896-3.98-3.067-7.921-6.812-9.841-5.75-2.878-12.416-2.733-18.686-2.673-4.577.242-9.499.639-13.377 3.33-2.977 2.039-3.881 6.155-2.819 9.47 1.002 2.38 3.749 3.148 5.998 3.856 12.949 3.387 26.671 3.049 39.373 7.506 5.259 1.817 10.403 5.35 12.203 10.856 2.355 7.38 1.323 16.2-3.928 22.124-4.258 4.875-10.459 7.529-16.644 8.97-8.228 1.835-16.767 1.882-25.123 1.067-7.857-.896-16.034-2.96-22.099-8.313-5.187-4.504-7.72-11.522-7.469-18.294.06-1.144 1.199-1.942 2.295-1.848 3.139-.025 6.279-.034 9.418.005 1.255-.09 2.184.994 2.249 2.176.578 3.791 2.003 7.771 5.31 10.018 6.38 4.117 14.387 3.835 21.693 3.95 6.053-.268 12.848-.349 17.787-4.35 2.606-2.282 3.378-6.1 2.674-9.384-.763-2.773-3.664-4.065-6.155-4.91-12.783-4.043-26.659-2.576-39.318-7.149-5.14-1.816-10.11-5.25-12.084-10.53-2.755-7.473-1.493-16.717 4.308-22.44 5.656-5.695 13.82-7.888 21.583-8.672"/></svg><svg xmlns="http://www.w3.org/2000/svg" width="256" height="256" transform="translate(1500 300)" viewBox="0 0 256 256"><rect width="256" height="256" fill="url(#h)" rx="60"/><path fill="#fff" d="M79.238 68.74c-9.986 14.618-8.742 33.633-1.134 49.146l.56 1.105.378.7c.07.136.15.27.223.402.132.246.264.482.378.724l.728 1.272.415.7.845 1.346.378.567c.378.605.805 1.206 1.225 1.799l.034.047c.066.095.14.189.19.284.362.51.755 1.013 1.133 1.512l.42.544 1.03 1.29.393.48q.703.848 1.437 1.671l.03.03c.019.024.038.038.057.062q.71.803 1.459 1.569l.469.48 1.166 1.165.476.461q.787.753 1.597 1.48l.303.264 1.45 1.248.6.488 1.21.945.647.501 1.849 1.351c.047.032.088.066.136.098.434.303.875.596 1.317.889l.571.387 2.064 1.286.571.327 1.55.884c.283.155.573.303.856.45l1.108.567.255.125.454.223 1.757.828.373.189q1.017.451 2.049.867l.499.201 1.933.729.242.087a66 66 0 0 0 2.155.719l.52.158c.756.227 1.465.498 2.225.643 48.29 8.99 62.321-29.536 62.321-29.536-11.781 15.632-32.693 19.752-52.505 15.165-.751-.189-1.479-.41-2.212-.631l-.552-.189a69 69 0 0 1-2.128-.705l-.293-.108a66 66 0 0 1-1.877-.709l-.529-.212a57 57 0 0 1-2.027-.858l-.404-.181-1.709-.813-.491-.242a61 61 0 0 1-1.324-.686l-.882-.473a49 49 0 0 1-1.584-.905l-.535-.303a78 78 0 0 1-2.064-1.285c-.189-.123-.371-.253-.558-.378l-1.469-.994-.472-.34-1.389-1.021-.617-.473-1.253-.998-.559-.453-1.56-1.323a2 2 0 0 0-.189-.146 72 72 0 0 1-1.64-1.52l-.462-.453-1.18-1.176-.46-.473a58 58 0 0 1-1.446-1.557c-.023-.027-.05-.051-.072-.076q-.75-.836-1.467-1.701l-.384-.465-1.058-1.329-.388-.491-1.219-1.654c-11-15.282-14.932-36.358-6.162-53.668zm30.999-12.316c-7.22 10.585-6.829 24.75-1.196 35.944a47 47 0 0 0 3.194 5.43c1.082 1.579 2.282 3.46 3.718 4.726.52.567 1.064 1.134 1.62 1.713.14.145.284.283.427.429q.81.803 1.656 1.567l.068.06a50 50 0 0 0 1.949 1.645l.439.347q.99.78 2.022 1.505.027.023.057.044c.302.213.614.415.922.619.148.099.287.203.435.295q.74.484 1.499.936l.212.125 1.323.756c.155.089.313.166.472.249l.945.488c.048.025.095.043.14.066.637.321 1.278.624 1.934.917.14.062.283.119.427.179a47 47 0 0 0 1.588.656l.68.254q.724.268 1.456.516l.657.213c.694.221 1.38.497 2.104.62 37.284 6.291 45.894-22.947 45.894-22.947-7.759 11.379-22.784 16.812-38.821 12.574a41 41 0 0 1-2.111-.624c-.214-.066-.423-.136-.635-.189a41 41 0 0 1-1.476-.518l-.668-.253c-.535-.189-1.064-.425-1.587-.652-.144-.063-.288-.119-.429-.185a37 37 0 0 1-1.947-.921c-.329-.164-.652-.336-.976-.507l-.563-.294a39 39 0 0 1-1.234-.709l-.295-.189a49 49 0 0 1-1.493-.93c-.152-.099-.299-.189-.45-.306l-.968-.652a52 52 0 0 1-2.015-1.501l-.454-.363c-7.018-5.644-12.583-13.356-15.227-22.102-2.773-9.073-2.174-19.252 2.646-27.514zm26.066-9.201c-4.257 6.381-4.674 14.305-1.701 21.352 3.115 7.479 9.498 13.348 16.947 16.129.307.117.615.22.945.327l.409.132c.438.14.875.302 1.327.39 20.588 4.05 26.171-10.76 27.657-12.94-4.892 7.174-13.112 8.896-23.198 6.403-.794-.199-1.673-.492-2.458-.767a30 30 0 0 1-2.897-1.227 30 30 0 0 1-5.081-3.159c-9.045-6.975-14.653-20.278-8.763-31.112m-48.654 139.93-1.394 4.945 1.394-4.943zm7.176 10.733-1.537-.01zm-.378 7.383-9.21.034zm1.927-7.372-1.538-.009zm-1.1 6.744 1.607-6.118zm33.892-28.177-2.987 14.05zm-7.684 0-2.268 10.497zm7.154-.633h-6.389a.84.84 0 0 0-.782.631l-4.537 20.995a.84.84 0 0 1-.78.629h-4.523c-4.476 0-3.958-3.094-3.025-7.334l.029-.128.542-2.892.234-1.191 2.065-10.079a.508.508 0 0 0-.516-.633h-6.559a.83.83 0 0 0-.779.631l-2.955 14.014c-1.625 7.417-1.194 14.491 7.637 14.712l.255.005h13.859a.84.84 0 0 0 .781-.631l5.976-28.1c.076-.347-.157-.631-.51-.631zm25.493 22.329c.356 0 .567.283.516.631l-.62 3.034zm-.724 6.701.62-3.036zm-.778.638-11.776.057z"/><path fill="#fff" d="M140.223 189.783c-.005-.333.373-.904.728-.904l-.798-.013c-.378 3.618.07.917.07.917m4.397 11.299h-.123zm12.696-7.394c.356 0 .567.283.516.631l-.722 3.527zm-9.672 7.404h-.026zm-1.569-.012h-.09zm-.478.002h-.151zm-.467 0h-.132zm.873-.002h-.387zm1.617.012-1.543.005zm8.197-.048-8.175.05zm.756-.655.52-2.541zm-11.144.693h-.299.337zm-.936 0h-.453zm.486 0h-.378zM51.49 189.858l.993-4.4-1.134 5.028-.133.631.276-1.262zm11.882-18.571h-7.018a.85.85 0 0 0-.788.63l-1.331 5.859a.493.493 0 0 0 .503.63h7.073a.84.84 0 0 0 .782-.63l1.286-5.873c.075-.345-.152-.629-.51-.629zm-1.527 9.769-2.08 9.523zm-20.388 31.556 5.788.046c-1.709 0-4.53-.032-5.79-.047z"/><path fill="#fff" d="m53.456 181.056-.994 4.4zm7.882-.63h-7.075a.85.85 0 0 0-.788.63l-1.985 8.8-.276 1.263-1.89 8.984q-.14.63-.34 1.242s-1.323 3.932-3.542 3.888l-2.202-.041a.85.85 0 0 0-.794.616l-1.465 6.167a.493.493 0 0 0 .493.636l5.79.047c5.55 0 8.474-3.076 10.35-11.922l4.253-19.658c.076-.345-.155-.629-.51-.629zm100.486 20.297c-.355 0-.567-.283-.51-.631l5.321-24.924zm7.395-.633 2.155-10.638z"/><path fill="#fff" d="M161.391 200.408c-.043-.174-.018-.6.057-.946l2.525-11.832-2.661 12.462c-.076.348.155.631.51.631h.647c-.355 0-1.036-.142-1.078-.315m7.41.173c-.193.076-.643.142-.998.142h.646a.83.83 0 0 0 .775-.633l.129-.631c-.07.347-.378 1.045-.567 1.122zm1.493-5.81.951-4.695zm20.996-17.934.293 1.21c.082.346-.143.627-.497.629m-21.739 20.783.945-4.688zm21.654-23.885.289 1.24zm-19.756 14.502.261-1.255 1.015-4.754-1.149 5.383-.127.624zm-4.523-15.318-.221 1.039-2.526 11.833 2.662-12.462.085-.408z"/><path fill="#fff" d="m191.585 178.047-.293-1.21-.434-1.89c-.575-2.231-2.261-3.522-5.924-3.522l-16.861-.011a.83.83 0 0 0-.778.631l-.261 1.235-.378 1.865-5.187 24.295c-.076.348-.1.756-.057.945s.724.316 1.078.316h5.33c.355 0 .803-.065.998-.142.195-.078.48-.756.567-1.123l2.023-10.007 2.164-10.139a.84.84 0 0 1 .779-.629l16.771-.008c.354 0 .579-.283.497-.629zm21.592-10.95-1.291.005h-5.368a1.4 1.4 0 0 0-1.01.533l-11.87 17.39c-.2.293-.429.25-.51-.094l-.874-3.832a.85.85 0 0 0-.788-.629h-7.63c-.356 0-.567.278-.469.62l3.402 11.98c.098.34.104.901.019 1.247l-1.512 5.798a.47.47 0 0 0 .073.444.48.48 0 0 0 .413.181h7.56a.88.88 0 0 0 .806-.624l1.512-5.797c.118-.408.304-.794.548-1.141l19.291-25.58c.214-.284.099-.514-.257-.511l-2.022.014zm-60.63 15.002c-.045.378-.4.662-.756.662h-9.678c-.334 0-.504-.227-.453-.511l.007-.051.044-.164c.945-2.457 2.807-4.07 6.343-4.07 3.983 0 4.76 1.947 4.49 4.134zm-2.839-11.167c-12.418 0-15.361 7.538-17.011 15.146-1.652 7.755-1.509 15.008 11.341 15.008h2.037l1.569-.006 8.177-.049a.83.83 0 0 0 .769-.633l1.242-6.071c.072-.348-.16-.632-.516-.632h-11.553c-4.593 0-5.959-1.221-5.457-4.81h18.468a.74.74 0 0 0 .684-.476.7.7 0 0 0 .045-.161c2.741-10.339 1.955-17.308-9.791-17.308zM91.01 182.058l-.174.618-1.394 4.944-1.395 4.941a.91.91 0 0 1-.82.62h-7.384c-5.599 0-6.962-4.379-5.599-10.838 1.361-6.606 4.036-10.714 9.546-11.129 7.53-.567 9.035 4.729 7.22 10.842zm5.062 10.745s3.478-8.449 4.272-13.331c1.077-6.535-2.192-16.01-14.828-16.01-12.565 0-18.02 9.046-20.1 18.902-2.08 9.904.646 18.592 13.136 18.524l19.064-.07a.89.89 0 0 0 .808-.628l1.606-6.12a.48.48 0 0 0-.07-.444.47.47 0 0 0-.412-.184l-3.075-.019c-.302-.002-.473-.196-.439-.453a.7.7 0 0 1 .038-.144z"/><path fill="#fff" d="M158.267 187.15a.423.423 0 1 1-.847 0 .423.423 0 1 1 .847 0"/><defs><linearGradient id="h" x1="0" x2="256" y1="0" y2="256" gradientUnits="userSpaceOnUse"><stop stop-color="#ff5c00"/><stop offset="1" stop-color="#ff0f00"/></linearGradient></defs></svg><svg xmlns="http://www.w3.org/2000/svg" width="256" height="256" transform="translate(1800 300)" viewBox="0 0 256 256"><rect width="256" height="256" fill="#f0db4f" rx="60"/><path fill="#323330" d="m67.312 213.932 19.59-11.856c3.78 6.701 7.218 12.371 15.465 12.371 7.905 0 12.889-3.092 12.889-15.12v-81.798h24.058v82.138c0 24.917-14.606 36.259-35.916 36.259-19.245 0-30.416-9.967-36.087-21.996m85.07-2.576 19.588-11.341c5.157 8.421 11.859 14.607 23.715 14.607 9.969 0 16.325-4.984 16.325-11.858 0-8.248-6.53-11.17-17.528-15.98l-6.013-2.579c-17.357-7.388-28.871-16.668-28.871-36.258 0-18.044 13.748-31.792 35.229-31.792 15.294 0 26.292 5.328 34.196 19.247l-18.731 12.029c-4.125-7.389-8.591-10.31-15.465-10.31-7.046 0-11.514 4.468-11.514 10.31 0 7.217 4.468 10.139 14.778 14.608l6.014 2.577c20.449 8.765 31.963 17.699 31.963 37.804 0 21.654-17.012 33.51-39.867 33.51-22.339 0-36.774-10.654-43.819-24.574"/></svg><svg xmlns="http://www.w3.org/2000/svg" width="256" height="256" transform="translate(2100 300)" viewBox="0 0 256 256"><rect width="256" height="256" fill="#007acc" rx="60"/><path fill="#fff" d="m56.611 128.849-.081 10.484h33.32v94.679h23.569v-94.679h33.32v-10.281c0-5.689-.121-10.443-.284-10.565-.122-.162-20.399-.244-44.983-.203l-44.739.122zm149.956-10.741c6.501 1.626 11.459 4.511 16.01 9.224 2.357 2.52 5.851 7.112 6.136 8.209.081.325-11.053 7.802-17.798 11.987-.244.163-1.22-.894-2.317-2.519-3.291-4.795-6.745-6.868-12.028-7.233-7.761-.529-12.759 3.535-12.718 10.321 0 1.991.284 3.169 1.097 4.795 1.706 3.535 4.876 5.648 14.832 9.955 18.326 7.884 26.168 13.085 31.045 20.48 5.445 8.249 6.664 21.415 2.966 31.208-4.063 10.646-14.141 17.879-28.323 20.277-4.388.772-14.791.65-19.504-.203-10.281-1.829-20.033-6.908-26.047-13.572-2.357-2.601-6.949-9.387-6.664-9.875.121-.162 1.178-.812 2.356-1.503 1.138-.65 5.446-3.129 9.509-5.486l7.355-4.267 1.544 2.276c2.154 3.291 6.867 7.802 9.712 9.305 8.167 4.308 19.383 3.698 24.909-1.259 2.357-2.154 3.332-4.389 3.332-7.68 0-2.967-.366-4.267-1.91-6.502-1.991-2.844-6.054-5.242-17.595-10.24-13.206-5.689-18.895-9.224-24.096-14.832-3.007-3.25-5.852-8.452-7.03-12.8-.975-3.616-1.219-12.678-.447-16.335 2.722-12.759 12.353-21.658 26.25-24.3 4.511-.853 14.994-.528 19.424.569"/></svg><svg xmlns="http://www.w3.org/2000/svg" width="256" height="256" transform="translate(2400 300)" viewBox="0 0 256 256"><rect width="256" height="256" fill="#242938" rx="60"/><path fill="#00d8ff" d="M128.001 146.951c10.304 0 18.656-8.353 18.656-18.656s-8.352-18.656-18.656-18.656-18.656 8.353-18.656 18.656 8.353 18.656 18.656 18.656"/><path stroke="#00d8ff" stroke-width="8.911" d="M128.002 90.363c25.048 0 48.317 3.594 65.862 9.635C215.003 107.275 228 118.306 228 128.295c0 10.409-13.774 22.128-36.475 29.649-17.162 5.686-39.746 8.654-63.523 8.654-24.378 0-47.463-2.786-64.819-8.717C41.225 150.376 28 138.506 28 128.295c0-9.908 12.41-20.854 33.252-28.12 17.61-6.14 41.453-9.812 66.746-9.812z" clip-rule="evenodd"/><path stroke="#00d8ff" stroke-width="8.911" d="M94.981 109.438c12.514-21.698 27.251-40.06 41.249-52.24 16.864-14.677 32.914-20.425 41.566-15.436 9.017 5.2 12.288 22.988 7.463 46.41-3.645 17.707-12.359 38.753-24.238 59.351-12.179 21.118-26.124 39.724-39.931 51.792-17.471 15.272-34.362 20.799-43.207 15.698-8.583-4.946-11.865-21.167-7.747-42.852 3.479-18.323 12.21-40.812 24.841-62.723z" clip-rule="evenodd"/><path stroke="#00d8ff" stroke-width="8.911" d="M95.012 147.578c-12.549-21.674-21.093-43.616-24.659-61.826-4.293-21.941-1.258-38.716 7.387-43.72 9.009-5.216 26.052.834 43.934 16.712 13.52 12.004 27.403 30.061 39.316 50.639 12.214 21.098 21.368 42.473 24.929 60.461 4.506 22.764.859 40.157-7.978 45.272-8.574 4.964-24.265-.291-40.996-14.689-14.136-12.164-29.26-30.959-41.933-52.849Z" clip-rule="evenodd"/></svg><svg xmlns="http://www.w3.org/2000/svg" width="256" height="256" transform="translate(2700 300)" viewBox="0 0 256 256"><rect width="256" height="256" fill="#f03c2e" rx="60"/><g clip-path="url(#i)"><path fill="#fff" d="m224.225 119.094-87.319-87.319a12.87 12.87 0 0 0-14.035-2.793 12.9 12.9 0 0 0-4.177 2.793L100.569 49.9l23 23c5.35-1.875 11.475-.594 15.737 3.669a15.31 15.31 0 0 1 3.631 15.831l22.169 22.169c5.363-1.85 11.55-.657 15.831 3.637a15.32 15.32 0 0 1 3.321 16.706 15.333 15.333 0 0 1-20.029 8.293c-1.86-.771-3.55-1.9-4.973-3.324-4.5-4.5-5.612-11.125-3.337-16.669l-20.675-20.675v54.407a15.6 15.6 0 0 1 4.062 2.9 15.326 15.326 0 0 1-21.675 21.675 15.32 15.32 0 0 1-3.326-16.704 15.3 15.3 0 0 1 3.326-4.971c1.481-1.475 3.125-2.594 5.019-3.344v-54.913a15.2 15.2 0 0 1-5.019-3.343 15.315 15.315 0 0 1-3.3-16.757L91.644 58.814l-59.875 59.812a12.88 12.88 0 0 0-2.795 14.04 12.9 12.9 0 0 0 2.795 4.179l87.325 87.312a12.9 12.9 0 0 0 4.177 2.793 12.9 12.9 0 0 0 9.858 0 12.9 12.9 0 0 0 4.177-2.793l86.919-86.781a12.88 12.88 0 0 0 3.776-9.109 12.88 12.88 0 0 0-3.776-9.11"/></g><defs><clipPath id="i"><path fill="#fff" d="M28 28h200v200H28z"/></clipPath></defs></svg><svg xmlns="http://www.w3.org/2000/svg" width="256" height="256" transform="translate(0 600)" viewBox="0 0 256 256"><rect width="256" height="256" fill="#242938" rx="60"/><path fill="url(#j)" fill-rule="evenodd" d="m89.032 129.893 48.723 84.401-22.391.21-13.008-22.676-13.101 22.555-11.126-.005-5.698-9.844 18.665-32.094-13.25-23.057z" clip-rule="evenodd"/><path fill="url(#k)" fill-rule="evenodd" d="m106.618 95.127-48.732 84.396-11.378-19.287 13.134-22.603-26.083-.068L28 127.928l5.676-9.857 37.127.117 13.343-23.003z" clip-rule="evenodd"/><path fill="url(#l)" fill-rule="evenodd" d="m110.356 162.592 97.456.005-11.014 19.496-26.142-.072 12.983 22.623-5.567 9.632-11.375.013-18.461-32.211-26.593-.054z" clip-rule="evenodd"/><path fill="url(#m)" fill-rule="evenodd" d="M167.079 125.611 118.355 41.21l22.392-.21 13.008 22.676 13.101-22.555 11.125.005 5.699 9.844-18.665 32.094 13.249 23.057z" clip-rule="evenodd"/><path fill="url(#n)" fill-rule="evenodd" d="m89.032 129.892 48.723 84.401-22.391.21-13.008-22.675-13.101 22.554-11.126-.004-5.698-9.845 18.665-32.094-13.25-23.056z" clip-rule="evenodd"/><path fill="url(#o)" fill-rule="evenodd" d="m145.553 92.718-97.455-.005 11.014-19.496 26.141.072-12.982-22.623 5.566-9.632 11.375-.013 18.462 32.211 26.592.054z" clip-rule="evenodd"/><path fill="url(#p)" fill-rule="evenodd" d="m149.382 160.738 48.732-84.396 11.377 19.286-13.133 22.603 26.083.069 5.559 9.637-5.677 9.857-37.126-.117-13.343 23.003z" clip-rule="evenodd"/><defs><linearGradient id="j" x1="73.76" x2="109.442" y1="132.543" y2="194.258" gradientUnits="userSpaceOnUse"><stop stop-color="#699ad7"/><stop offset=".243" stop-color="#7eb1dd"/><stop offset="1" stop-color="#7ebae4"/></linearGradient><linearGradient id="k" x1="96.686" x2="61.081" y1="83.226" y2="144.985" gradientUnits="userSpaceOnUse"><stop stop-color="#699ad7"/><stop offset=".243" stop-color="#7eb1dd"/><stop offset="1" stop-color="#7ebae4"/></linearGradient><linearGradient id="l" x1="105.016" x2="176.304" y1="177.143" y2="177.099" gradientUnits="userSpaceOnUse"><stop stop-color="#699ad7"/><stop offset=".243" stop-color="#7eb1dd"/><stop offset="1" stop-color="#7ebae4"/></linearGradient><linearGradient id="m" x1="182.351" x2="146.669" y1="122.96" y2="61.246" gradientUnits="userSpaceOnUse"><stop stop-color="#699ad7"/><stop offset=".243" stop-color="#7eb1dd"/><stop offset="1" stop-color="#7ebae4"/></linearGradient><linearGradient id="n" x1="77.448" x2="112.497" y1="130.444" y2="192.398" gradientUnits="userSpaceOnUse"><stop stop-color="#415e9a"/><stop offset=".232" stop-color="#4a6baf"/><stop offset="1" stop-color="#5277c3"/></linearGradient><linearGradient id="o" x1="150.867" x2="79.689" y1="82.41" y2="81.787" gradientUnits="userSpaceOnUse"><stop stop-color="#415e9a"/><stop offset=".232" stop-color="#4a6baf"/><stop offset="1" stop-color="#5277c3"/></linearGradient><linearGradient id="p" x1="155.652" x2="191.781" y1="170.494" y2="109.164" gradientUnits="userSpaceOnUse"><stop stop-color="#415e9a"/><stop offset=".232" stop-color="#4a6baf"/><stop offset="1" stop-color="#5277c3"/></linearGradient></defs></svg><svg xmlns="http://www.w3.org/2000/svg" width="256" height="256" transform="translate(300 600)" viewBox="0 0 256 256"><rect width="256" height="256" fill="#242938" rx="60"/><path fill="#eceff1" d="m85.95 199.926 24.53 13.62h37.096l34.702-26.055 15.556-40.859-35.899-43.227-10.171-24.278-49.66 1.776.598 13.62-9.573 17.764-14.958 29.016-2.991 24.278z"/><path fill="#263238" d="M187.064 114.656c-9.573-13.62-17.351-21.91-21.539-39.082s1.197-12.435-2.393-27.24c-1.795-7.697-4.787-13.027-7.778-17.172-3.59-4.145-7.778-6.514-10.172-7.106-5.384-2.96-17.949-7.698-33.505.592-16.155 8.29-14.36 26.055-11.368 62.177 0 2.368-.599 5.33-1.795 7.698-2.393 5.33-6.582 10.066-10.171 14.212-4.189 5.921-8.377 11.843-11.368 18.356-7.18 13.62-13.762 30.792-11.967 37.306 2.992-.592 40.686 56.255 40.686 57.439 2.393-.592 12.564-.592 21.539-.592 12.565-.592 19.744-1.184 29.916 1.184 0-1.776-.599-3.553-.599-5.329 0-3.553.599-6.514 1.197-10.659.598-2.961 1.197-5.921 1.795-9.474-5.983 5.329-16.753 11.251-26.924 13.027-8.975 1.776-23.933-1.184-31.113-10.067.599 0 1.795 0 2.394-.592 1.795-.592 3.59-1.184 4.188-2.368 1.795-2.961.598-5.922-.598-7.698-1.197-1.777-10.172-8.291-14.36-11.843-4.188-3.553-6.581-5.33-8.975-7.698l-4.786-4.738c-1.197-1.184-1.795-2.368-2.393-2.961-1.197-2.96-1.795-6.513-1.197-11.25.598-6.514 2.991-11.844 5.983-17.765 1.197-2.369 4.188-7.106 4.188-7.106s-10.171 24.871-4.786 32.569c0 0 .598-7.698 2.991-15.396 1.795-5.33 4.787-13.028 8.377-17.173s12.564-19.541 13.163-29.016c0-4.145.598-8.29.598-11.25-2.393-2.37 39.489-8.29 41.882-1.777.598 2.369 8.975 23.686 13.761 34.937 2.393 5.33 5.385 10.067 7.18 15.988 1.795 6.514 2.991 15.396 2.991 24.279 0 1.776 0 4.737-.598 7.698 1.197 0 24.531-24.871-2.991-45.596 0 0 16.752 7.698 17.351 23.094.598 12.435-4.787 22.502-5.983 24.278.598 0 12.564 5.33 13.162 5.33 2.394 0 7.18-1.777 7.18-1.777.599-1.776 2.393-6.514 2.393-8.29 4.189-13.62-5.983-35.529-15.556-49.149"/><path fill="#eceff1" d="M111.078 75.574c4.296 0 7.778-5.303 7.778-11.843 0-6.541-3.482-11.843-7.778-11.843S103.3 57.19 103.3 63.73s3.483 11.843 7.778 11.843m26.924 1.185c5.618 0 10.172-6.098 10.172-13.62S143.62 49.52 138.002 49.52c-5.617 0-10.171 6.098-10.171 13.62s4.554 13.62 10.171 13.62"/><path fill="#212121" d="M115.424 64.541c-.497-3.893-2.761-6.817-5.056-6.53s-3.752 3.676-3.254 7.57c.497 3.893 2.76 6.817 5.055 6.53 2.295-.288 3.752-3.677 3.255-7.57m21.98 8.664c3.305 0 5.983-3.446 5.983-7.698 0-4.251-2.678-7.698-5.983-7.698s-5.983 3.447-5.983 7.698 2.679 7.698 5.983 7.698"/><path fill="#ffc107" d="M216.98 195.781c-2.393-1.184-6.582-2.961-10.172-8.29-1.794-2.961-1.196-11.251-4.188-14.804-1.795-2.368-4.188-1.184-4.786-1.184-5.385 1.184-17.95 9.474-26.326 0-1.197-1.184-2.992-2.961-5.983-2.961-2.992 0-4.188 1.184-5.385 3.553s-1.197 4.145-1.197 10.067c0 4.737 0 10.066-.598 14.211-1.197 10.067-2.991 15.989-2.991 21.91 0 6.514 1.794 10.659 4.188 12.435 1.795 1.777 4.786 2.961 11.368 2.961 6.581 0 10.769-2.368 14.958-6.514 2.991-2.96 5.384-4.145 13.761-10.066 6.581-4.145 16.753-9.475 18.547-11.251 1.197-1.184 2.992-1.777 2.992-5.33 0-2.96-2.393-4.145-4.188-4.737m-120.261 1.777c-5.983-9.475-6.582-11.251-10.77-17.173-3.59-5.921-11.368-17.172-16.154-17.172-3.59 0-5.385 1.776-7.778 4.145-2.394 2.368-4.787 7.698-8.975 10.659-3.59 2.96-13.761 2.368-16.154 5.921s2.393 8.883 2.393 17.765c0 3.553-2.992 5.921-3.59 8.29-.598 2.961-1.197 4.737 0 7.106 2.393 3.553 5.385 4.737 25.727 8.882 10.77 2.369 20.941 8.29 27.523 8.883 6.581.592 17.949 0 17.949-15.989.599-9.474-4.786-11.843-10.171-21.317m11.368-107.18c-3.59-2.369-6.582-4.738-6.582-8.29 0-3.553 2.394-4.738 5.984-7.698.598-.593 7.179-6.514 13.761-6.514s14.359 4.145 17.351 5.33c5.385 1.183 10.769 2.368 10.171 6.513-.598 5.921-1.196 7.106-7.18 10.067-4.188 1.184-11.966 7.698-17.351 7.698-2.393 0-5.983 0-8.376-.593-1.795-.592-4.787-3.553-7.778-6.513"/><path fill="#634703" d="M106.89 85.64c1.197 1.185 2.992 2.37 4.787 2.961 1.196.592 2.991 1.185 2.991 1.185h5.385c2.992 0 7.18-1.185 11.368-3.553 4.188-1.777 4.787-2.961 7.778-4.145 2.992-1.777 5.983-3.553 4.787-4.145-1.197-.593-2.394 0-6.582 2.368-3.59 2.369-6.581 3.553-10.171 5.33-1.795.592-4.188 1.776-5.983 1.776h-5.385c-1.795 0-2.992-.592-4.787-1.184-1.196-.593-1.795-1.185-2.393-1.185-1.196-.592-3.59-2.96-4.786-3.553 0 0-1.197 0-.599.593zm17.95-13.027c.598 1.184 1.795 1.184 2.393 1.776s1.196.593 1.196.593c.599-.593 0-1.777-.598-1.777 0-1.184-2.991-1.184-2.991-.592m-9.573 1.184c0 .593 1.196 1.185 1.196.593.599-.593 1.197-1.185 1.795-1.185 1.197-.592.598-1.184-1.196-1.184-1.197.592-1.197 1.184-1.795 1.776"/><path fill="#455a64" d="M173.303 178.609v1.776c1.197 2.369 4.188 2.961 6.581 2.961 3.59 0 7.18-2.369 8.975-4.737 0-.592.598-1.185 1.197-1.777 1.196-1.776 1.795-2.96 2.393-3.553 0 0-.598-.592-.598-1.184-.599-1.184-2.394-2.369-4.787-2.961-1.795-.592-4.786-1.184-5.983-1.184-5.385-.592-8.376 1.184-10.171 2.961 0 0 .598 0 .598.592 1.197 1.184 1.795 2.369 1.795 4.145.598 1.184 0 1.776 0 2.961"/></svg><svg xmlns="http://www.w3.org/2000/svg" width="256" height="256" transform="translate(600 600)" viewBox="0 0 256 256"><rect width="256" height="256" fill="#326ce5" rx="60"/><path fill="#fff" stroke="#fff" stroke-width=".11" d="M128.073 30a6.014 6.014 0 0 0-5.589 6.314v1.605c.153 1.817.426 3.617.785 5.4a53 53 0 0 1 .563 10.326 6.23 6.23 0 0 1-1.86 2.943l-.128 2.407c-3.456.29-6.886.819-10.265 1.587a73.1 73.1 0 0 0-37.153 21.204l-2.047-1.45a4.42 4.42 0 0 1-3.37-.342 53 53 0 0 1-7.655-6.912 47 47 0 0 0-3.729-3.967l-1.263-1.007a6.82 6.82 0 0 0-3.95-1.493 5.46 5.46 0 0 0-4.531 2.013 6.02 6.02 0 0 0 1.4 8.388l1.177.939a47 47 0 0 0 4.71 2.756 49 49 0 0 1 8.516 5.973 6.3 6.3 0 0 1 1.134 3.276l1.86 1.707a73.54 73.54 0 0 0-11.587 51.248l-2.39.683a7.8 7.8 0 0 1-2.44 2.457 53 53 0 0 1-10.188 1.681 48 48 0 0 0-5.46.427l-1.511.341h-.17a5.716 5.716 0 0 0-4.791 6.924 5.7 5.7 0 0 0 1.488 2.736 5.72 5.72 0 0 0 5.836 1.407h.111l1.536-.17a46 46 0 0 0 5.103-1.86 53 53 0 0 1 9.915-2.901 6.2 6.2 0 0 1 3.26 1.151l2.56-.426a73.92 73.92 0 0 0 32.766 40.983l-1.041 2.176a5.7 5.7 0 0 1 .512 3.208 55 55 0 0 1-5.146 9.318 48 48 0 0 0-3.054 4.548l-.726 1.536a5.72 5.72 0 0 0 2.49 8.015 5.7 5.7 0 0 0 3.057.527 5.72 5.72 0 0 0 4.719-3.687l.707-1.45a47 47 0 0 0 1.639-5.205c1.51-3.729 2.33-7.731 4.394-10.206a4.6 4.6 0 0 1 2.441-1.194l1.28-2.33a73.55 73.55 0 0 0 52.443.128l1.134 2.176a4.44 4.44 0 0 1 2.902 1.749 54 54 0 0 1 3.891 9.557 48 48 0 0 0 1.655 5.214l.708 1.45a5.72 5.72 0 0 0 7.784 3.154 5.7 5.7 0 0 0 2.345-2.036 5.71 5.71 0 0 0 .136-5.981l-.742-1.536a47 47 0 0 0-3.055-4.531c-1.962-2.833-3.652-5.854-5.12-9.019a4.43 4.43 0 0 1 .581-3.414 20 20 0 0 1-.948-2.295 74.02 74.02 0 0 0 32.622-41.128l2.423.426a4.53 4.53 0 0 1 3.183-1.177c3.387.648 6.706 1.706 9.915 2.901a43 43 0 0 0 5.102 1.963c.41.111 1.007.204 1.468.315h.111a5.71 5.71 0 0 0 5.823-1.421 5.7 5.7 0 0 0 1.504-2.729 5.7 5.7 0 0 0-.151-3.111 5.72 5.72 0 0 0-4.642-3.806l-1.655-.392a48 48 0 0 0-5.461-.427 52 52 0 0 1-10.188-1.681 6.4 6.4 0 0 1-2.458-2.457l-2.304-.683a73.8 73.8 0 0 0-11.826-51.137l2.014-1.86a4.5 4.5 0 0 1 1.058-3.226 53.6 53.6 0 0 1 8.447-5.939 48 48 0 0 0 4.71-2.756l1.246-1.007a5.72 5.72 0 0 0 1.456-8.42 5.716 5.716 0 0 0-8.53-.463l-1.262 1.007a48 48 0 0 0-3.729 3.968 53.3 53.3 0 0 1-7.45 7.023 6.3 6.3 0 0 1-3.447.375l-2.159 1.536a74.55 74.55 0 0 0-47.229-22.783c0-.853-.111-2.133-.128-2.534a4.48 4.48 0 0 1-1.86-2.833 53 53 0 0 1 .648-10.3c.367-1.791.623-3.583.785-5.4v-1.707a6.01 6.01 0 0 0-5.589-6.314zm-7.117 44.08-1.706 29.806h-.128c-.086 1.843-1.169 3.413-2.833 4.301-1.664.887-3.635.623-5.12-.461L86.722 90.404a58.54 58.54 0 0 1 28.184-15.35 60 60 0 0 1 6.033-.973zm14.233 0a59.1 59.1 0 0 1 34.046 16.418l-24.216 17.211a5.02 5.02 0 0 1-5.274.614 5.02 5.02 0 0 1-2.867-4.471zm-57.34 27.536 22.355 19.95v.128a5.02 5.02 0 0 1 1.587 4.898 5.02 5.02 0 0 1-3.558 3.712v.085l-28.687 8.251a58.53 58.53 0 0 1 8.31-37.032zm100.286 0a59.58 59.58 0 0 1 8.55 36.922l-28.73-8.277v-.111a4.96 4.96 0 0 1-3.559-3.712 5.05 5.05 0 0 1 1.588-4.897l22.185-19.856zm-54.645 21.503h9.148l5.589 7.099-2.031 8.875-8.217 3.95-8.235-3.95-1.937-8.875zm29.302 24.216a5.3 5.3 0 0 1 1.152 0l29.584 4.992c-4.267 12.287-12.689 22.783-23.679 29.805l-11.434-27.68a5 5 0 0 1-.383-2.354 5.04 5.04 0 0 1 4.726-4.635zm-49.687.128a5.03 5.03 0 0 1 4.13 2.287 4.99 4.99 0 0 1 .401 4.693v.111l-11.365 27.459a58.7 58.7 0 0 1-23.534-29.498l29.327-4.975q.489-.051.99 0zm24.78 11.946a5.04 5.04 0 0 1 4.582 2.628h.111l14.455 26.085-5.777 1.707a58.83 58.83 0 0 1-32.067-1.655l14.506-26.085c.879-1.536 2.5-2.475 4.267-2.518z"/></svg><svg xmlns="http://www.w3.org/2000/svg" width="256" height="256" transform="translate(900 600)" viewBox="0 0 256 256"><rect width="256" height="256" fill="#2396ed" rx="60"/><path fill="#fff" d="M141.187 122.123h20.717v-18.744h-20.717zm-24.662 0h20.716v-18.744h-20.716zm-24.17 0h20.717v-18.744H92.355zm-24.17 0H88.41v-18.744H68.186zm-24.662 0H64.24v-18.744H43.523zm24.663-22.69h20.223V80.69H68.186zm24.17 0h20.716V80.69H92.355zm24.169 0h20.716V80.69h-20.716zm0-22.69h20.716V58h-20.716zM228 113.739s-8.879-8.386-27.129-5.426c-1.973-14.305-17.264-22.69-17.264-22.69s-14.304 17.264-3.946 36.501c-2.959 1.48-7.892 3.453-15.291 3.453H28.726c-2.467 9.372-2.467 71.521 65.602 71.521 48.832 0 85.333-22.689 102.597-64.123C222.574 134.948 228 113.738 228 113.738"/></svg><svg xmlns="http://www.w3.org/2000/svg" width="256" height="256" transform="translate(1200 600)" viewBox="0 0 256 256"><rect width="256" height="256" fill="#242938" rx="60"/><path fill="url(#q)" d="M220.724 116.455c-.354-3.197-.71-7.105-2.131-11.368q-1.599-6.395-5.328-13.854-3.73-7.46-9.592-14.92c-1.421-1.777-3.197-3.908-5.328-5.684 2.841-11.368-3.552-20.96-3.552-20.96-10.658-.71-17.763 3.198-20.25 5.33-.355 0-.71-.356-1.421-.711-1.775-.71-3.552-1.421-5.683-2.132-2.131-.71-3.908-1.065-6.039-1.776-2.132-.355-4.264-.71-6.039-1.066h-1.066C149.676 34.394 136.177 28 136.177 28c-14.919 9.592-17.761 22.735-17.761 22.735v.71c-.711.356-1.777.356-2.487.711-1.066.355-2.132.71-3.553 1.066-1.065.355-2.131.71-3.552 1.421-2.131 1.066-4.618 2.131-6.749 3.197-2.132 1.066-4.263 2.487-6.395 3.908-.355 0-.355-.355-.355-.355-20.96-7.816-39.432 1.776-39.432 1.776-1.776 22.025 8.17 36.234 10.302 38.721-.355 1.421-1.065 2.842-1.42 4.263-1.422 4.973-2.843 10.302-3.553 15.631 0 .71-.355 1.42-.355 2.131C41.684 133.506 36 153.044 36 153.044c15.986 18.473 34.814 19.538 34.814 19.538 2.486 4.264 4.973 8.171 8.17 12.078 1.42 1.421 2.842 3.198 3.908 4.619-5.684 16.696.71 30.551.71 30.551 17.762.71 29.485-7.816 31.972-9.947 1.776.71 3.552 1.065 5.328 1.776 5.329 1.421 11.013 2.132 16.696 2.486h6.75C152.874 226.223 167.439 228 167.439 228c10.657-11.013 11.012-22.025 11.012-24.512v-.71c2.131-1.421 4.262-3.197 6.395-4.973 4.262-3.908 7.814-8.171 11.012-12.789.355-.356.71-.71.71-1.421 12.078.711 20.249-7.46 20.249-7.46-2.132-12.434-9.237-18.473-10.658-19.538h-.354v-14.921c-.356-1.42-.356-2.841-.711-3.907-1.421-5.328-3.197-10.302-6.039-14.92s-6.039-8.526-9.947-12.078c-3.908-3.553-8.17-6.039-12.788-8.171s-9.237-3.197-14.21-3.907c-2.487-.356-4.618-.356-7.105-.356h-3.552c-1.066 0-2.487.356-3.552.356-4.618.71-9.237 2.486-13.144 4.973s-7.46 5.329-10.302 8.526-4.974 7.105-6.395 11.012-2.131 7.815-2.486 11.723v5.684c.355 1.776.71 3.908 1.065 5.684 1.066 3.552 2.842 6.749 4.619 9.591 2.131 2.842 4.618 4.974 7.105 6.749 2.486 1.777 5.328 3.198 8.17 3.908 2.842.711 5.329 1.066 8.17 1.066h4.619c.354 0 .71 0 1.065-.355.71 0 1.066-.355 1.776-.355 1.066-.356 2.132-.711 3.198-1.421 1.065-.356 1.775-1.066 2.841-1.777.355 0 .356-.354.711-.71 1.066-.71 1.066-2.131.355-2.842-.71-.71-1.776-1.066-2.486-.355-.356 0-.356.355-.711.355-.71.355-1.421.711-2.487 1.065-.71.356-1.776.356-2.487.711h-5.683c-2.131-.355-3.908-.711-6.039-1.776-2.132-.71-3.908-2.131-5.685-3.552-1.775-1.422-3.196-3.553-4.262-5.329s-2.131-4.263-2.487-6.749c-.355-1.066-.355-2.487-.355-3.553v-1.776c0-.71 0-1.421.355-2.132 1.066-5.328 3.553-10.301 7.816-14.564 1.066-1.066 2.131-1.777 3.197-2.843 1.065-.71 2.487-1.42 3.552-2.131 1.421-.71 2.842-1.065 3.908-1.421 1.421-.355 2.842-.71 4.262-.71h4.264c1.421 0 3.196.355 4.617.71 3.198.711 6.039 1.777 8.882 3.552 5.683 3.198 10.301 8.172 13.499 13.855 1.421 2.842 2.487 6.039 3.197 9.236 0 .711.355 1.777.355 2.487v5.684c0 1.066 0 1.776-.355 2.842 0 .71-.355 1.776-.355 2.486s-.356 1.777-.711 2.487c-.356 1.776-1.066 3.553-1.776 4.973q-2.131 4.797-5.329 9.592c-4.263 5.684-9.946 10.657-16.696 13.499-3.197 1.421-6.749 2.487-10.302 3.197-1.776.356-3.552.356-5.329.71h-2.486c.355 0 0 0 0 0h-2.842c-3.907-.354-7.815-1.065-11.368-2.131s-7.46-2.487-10.657-4.262c-6.749-3.553-12.789-8.526-17.762-14.566-2.487-2.841-4.618-6.039-6.039-9.591q-2.664-5.328-4.263-10.657c-1.065-3.552-1.776-7.46-1.776-11.012v-6.75c0-1.776.355-3.907.355-5.684.355-1.776.71-3.908 1.066-5.683.355-1.777.71-3.908 1.42-5.685 1.067-3.552 2.488-7.104 3.909-10.657 3.197-6.75 7.104-12.788 12.078-17.406 1.065-1.066 2.486-2.487 3.907-3.553s2.842-2.131 4.263-2.842c1.421-1.065 2.842-1.776 4.263-2.486l2.132-1.066c.355 0 .71-.356 1.065-.356s.711-.355 1.066-.355c1.421-.71 3.197-1.065 4.618-1.776.355 0 .711-.355 1.066-.355s.711-.355 1.065-.355c.711-.356 1.777-.356 2.487-.71.355 0 .711-.356 1.421-.356.355 0 .711 0 1.421-.355.356 0 .711 0 1.421-.355h1.421c.355 0 .71 0 1.421-.356.355 0 1.066 0 1.421-.355h6.039s.355 0 0 0h6.394q4.796 0 9.592 1.066c6.039 1.065 11.723 3.197 17.052 5.684a55.4 55.4 0 0 1 13.853 9.236l.711.71.71.71c.356.356 1.066.711 1.421 1.422.356.71 1.066.71 1.422 1.42.355.711 1.065 1.066 1.421 1.422 1.775 1.776 3.196 3.552 4.618 5.683 2.842 3.553 5.329 7.46 7.104 11.013 0 .355.356.355.356.71 0 .356.355.356.355.711.355.355.355.71.71 1.421.356.355.356.71.71 1.421.356.355.356.71.711 1.421.711 1.776 1.422 3.197 1.776 4.617.711 2.487 1.421 4.619 1.777 6.395.355.711 1.065 1.421 1.776 1.066.71 0 1.421-.71 1.421-1.422 1.421-4.262 1.421-6.749 1.065-9.235"/><defs><linearGradient id="q" x1="129.039" x2="129.039" y1="282.048" y2="50.683" gradientUnits="userSpaceOnUse"><stop stop-color="#fff100"/><stop offset="1" stop-color="#f05a28"/></linearGradient></defs></svg><svg xmlns="http://www.w3.org/2000/svg" width="256" height="256" transform="translate(1500 600)" viewBox="0 0 256 256"><rect width="256" height="256" fill="#e6522c" rx="60"/><path fill="#fff" d="M128.355 228c-17.903 0-32.419-11.96-32.419-26.708h64.838c0 14.746-14.515 26.708-32.419 26.708m53.545-35.553H74.804v-19.42h107.098zm-.384-29.415H75.109c-.354-.408-.715-.811-1.057-1.225-10.963-13.311-13.545-20.26-16.052-27.342-.042-.233 13.293 2.725 22.75 4.852 0 0 4.865 1.126 11.98 2.423-6.831-8.006-10.887-18.185-10.887-28.588 0-22.84 17.518-42.798 11.198-58.93 6.15.5 12.73 12.981 13.174 32.495 6.539-9.036 9.276-25.538 9.276-35.656 0-10.476 6.902-22.645 13.807-23.061-6.155 10.144 1.595 18.84 8.483 40.413 2.584 8.104 2.254 21.74 4.249 30.388.662-17.961 3.75-44.17 15.145-53.217-5.027 11.394.744 25.652 4.691 32.507 6.368 11.059 10.228 19.438 10.228 35.284 0 10.625-3.923 20.628-10.54 28.448 7.524-1.412 12.72-2.685 12.72-2.685l24.434-4.767s-3.549 14.6-17.192 28.661"/></svg><svg xmlns="http://www.w3.org/2000/svg" width="256" height="256" transform="translate(1800 600)" viewBox="0 0 256 256"><rect width="256" height="256" fill="#242938" rx="60"/><path fill="#336791" d="M203.48 148.688c-20.32 4.19-21.796-2.693-21.796-2.693 21.466-31.852 30.445-72.282 22.696-82.175-21.121-27-57.691-14.224-58.303-13.893l-.197.035a72.5 72.5 0 0 0-13.563-1.414c-9.197-.14-16.172 2.412-21.473 6.427 0 0-65.236-26.873-62.199 33.8.647 12.909 18.493 97.734 39.797 72.07 7.847-9.436 15.37-17.361 15.37-17.361 3.727 2.482 8.206 3.748 12.896 3.291l.365-.309a14.2 14.2 0 0 0 .148 3.642c-5.484 6.131-3.867 7.207-14.836 9.464-11.095 2.285-4.57 6.356-.323 7.425 5.161 1.294 17.1 3.122 25.172-8.17l-.324 1.286c2.152 1.723 3.656 11.201 3.403 19.793-.253 8.593-.422 14.485 1.266 19.097s3.375 14.977 17.789 11.953c12.045-2.58 18.281-9.281 19.16-20.432.619-7.932 2.011-6.765 2.11-13.852l1.125-3.361c1.286-10.758.21-14.224 7.628-12.607l1.807.162c5.464.246 12.615-.879 16.805-2.827 9.035-4.19 14.393-11.194 5.484-9.351z"/><path stroke="#fff" stroke-linecap="round" stroke-linejoin="round" stroke-width="5.034" d="M146.07 48.596c-2.25.703 36.31-14.097 58.233 13.908 7.735 9.893-1.23 50.323-22.697 82.174m-53.508 9.106c-.562 20.011.141 40.162 2.096 45 1.954 4.837 6.152 14.414 20.573 11.334 12.045-2.58 16.432-7.58 18.331-18.612l4.45-35.275zM110.816 53.469S45.537 26.779 48.575 87.45c.647 12.909 18.492 97.734 39.797 72.07 7.776-9.373 14.808-16.706 14.808-16.706z"/><path stroke="#fff" stroke-linecap="round" stroke-linejoin="bevel" stroke-width="5.034" d="M181.613 144.664s1.407 6.891 21.797 2.686c8.909-1.842 3.544 5.161-5.484 9.352-7.411 3.445-24.033 4.324-24.307-.422-.703-12.27 8.747-8.543 8.065-11.616-.619-2.77-4.852-5.484-7.636-12.262-2.44-5.907-33.469-51.258 8.606-44.53 1.547-.316-10.969-40.077-50.344-40.654s-38.13 48.41-38.13 48.41"/><path stroke="#fff" stroke-linejoin="round" stroke-width="5.034" d="M117.08 148.869c-5.484 6.131-3.867 7.207-14.835 9.464-11.096 2.285-4.57 6.356-.324 7.425 5.161 1.294 17.1 3.122 25.172-8.178 2.461-3.445-.014-8.929-3.389-10.321-1.631-.675-3.811-1.519-6.609 1.617z"/><path stroke="#fff" stroke-linecap="round" stroke-linejoin="round" stroke-width="5.034" d="M116.722 148.763c-.563-3.607 1.181-7.889 3.044-12.909 2.799-7.523 9.254-15.047 4.093-38.932-3.846-17.79-29.672-3.706-29.672-1.294s1.167 12.235-.422 23.66c-2.088 14.921 9.492 27.535 22.823 26.248"/><path fill="#fff" stroke="#fff" stroke-width="1.68" d="M110.577 95.27c-.12.822 1.511 3.023 3.628 3.318 2.116.296 3.923-1.42 4.043-2.25.119-.83-1.512-1.73-3.628-2.025s-3.938.14-4.043.956Z"/><path fill="#fff" stroke="#fff" stroke-width=".837" d="M175.011 93.59c.112.822-1.512 3.022-3.628 3.318-2.117.295-3.938-1.42-4.043-2.25-.106-.83 1.512-1.73 3.628-2.025s3.937.14 4.043.956Z"/><path stroke="#fff" stroke-linecap="round" stroke-linejoin="round" stroke-width="5.034" d="M182.577 87.887c.351 6.469-1.393 10.863-1.618 17.747-.323 9.998 4.768 21.445-2.904 32.906"/></svg><svg xmlns="http://www.w3.org/2000/svg" width="256" height="256" transform="translate(2100 600)" viewBox="0 0 256 256"><g clip-path="url(#r)"><rect width="256" height="256" fill="#d33847" rx="60"/><g filter="url(#s)"><path fill="#fff" fill-rule="evenodd" d="M60.167 154.5c.305 6.261 2.155 11.966 5.534 16.898L55.217 181.48c-1.108 1.163-.205 2.125 1.095 3.496l9.08 9.512c1.254 1.388 2.101 2.251 3.258 1.118l11.373-10.903c2.733 1.249 9.258 3.594 18.929 3.085l7.209-4.97a17 17 0 0 1 2.112-1.209l6.544-3.065-5.124 4.974c-.49.476-1.33 1.168-1.864 1.54l-6.199 4.272 12.446 31.3a2.37 2.37 0 0 0 1.442 1.367c.318.104.645.128.952.072s.583-.193.805-.396l24.546-22.226c.286-.259.47-.616.524-1.02l4.189-31.964c6.723-5.447 13.483-11.888 20.105-19.149 38.113-41.806 42.392-76.916 41.554-94.12-.277-5.668-1.113-8.855-1.145-8.988a2.36 2.36 0 0 0-.608-1.044 2.3 2.3 0 0 0-1.036-.606c-2.022-.538-50.204-12.532-109.382 44.2-.074.08-7.748 7.707-15.878 18.656l-31.521 5.902a1.6 1.6 0 0 0-.941.545L26.29 137.217c-.193.23-.319.514-.367.827s-.015.642.095.962c.109.319.292.617.532.867s.53.444.844.565l30.983 11.867 4.85-5.471a17 17 0 0 1 1.732-1.639l5.498-4.408-3.753 6.029a16 16 0 0 1-1.43 1.926zm64.195-60.272c9.606-9.216 23.904-9.845 31.934-1.396 8.035 8.449 6.758 22.764-2.851 31.984-9.606 9.216-23.9 9.84-31.934 1.395-8.035-8.449-6.754-22.767 2.851-31.983" clip-rule="evenodd"/></g><g filter="url(#t)"><path fill="url(#u)" fill-opacity=".1" fill-rule="evenodd" d="M124.303 94.334c9.606-9.22 23.904-9.844 31.934-1.395 8.035 8.449 6.758 22.763-2.852 31.979-9.605 9.221-23.899 9.845-31.933 1.396-8.035-8.449-6.754-22.763 2.851-31.98" clip-rule="evenodd"/></g></g><defs><filter id="s" width="217.034" height="215.609" x="-.087" y="23.815" color-interpolation-filters="sRGB" filterUnits="userSpaceOnUse"><feFlood flood-opacity="0" result="BackgroundImageFix"/><feColorMatrix in="SourceAlpha" result="hardAlpha" values="0 0 0 0 0 0 0 0 0 0 0 0 0 0 0 0 0 0 127 0"/><feOffset dx="-8.663"/><feGaussianBlur stdDeviation="8.663"/><feColorMatrix values="0 0 0 0 0 0 0 0 0 0 0 0 0 0 0 0 0 0 0.15 0"/><feBlend in2="BackgroundImageFix" result="effect1_dropShadow_195_25"/><feBlend in="SourceGraphic" in2="effect1_dropShadow_195_25" result="shape"/></filter><filter id="t" width="79.999" height="79.927" x="90.183" y="69.663" color-interpolation-filters="sRGB" filterUnits="userSpaceOnUse"><feFlood flood-opacity="0" result="BackgroundImageFix"/><feColorMatrix in="SourceAlpha" result="hardAlpha" values="0 0 0 0 0 0 0 0 0 0 0 0 0 0 0 0 0 0 127 0"/><feOffset dx="-8.663"/><feGaussianBlur stdDeviation="8.663"/><feColorMatrix values="0 0 0 0 0 0 0 0 0 0 0 0 0 0 0 0 0 0 0.15 0"/><feBlend in2="BackgroundImageFix" result="effect1_dropShadow_195_25"/><feBlend in="SourceGraphic" in2="effect1_dropShadow_195_25" result="shape"/></filter><linearGradient id="u" x1="108.994" x2="157.274" y1="138.249" y2="92.474" gradientUnits="userSpaceOnUse"><stop/><stop offset="1" stop-color="#fff"/></linearGradient><clipPath id="r"><rect width="256" height="256" fill="#fff" rx="60"/></clipPath></defs></svg><svg xmlns="http://www.w3.org/2000/svg" width="256" height="256" transform="translate(2400 600)" viewBox="0 0 256 256"><rect width="256" height="256" fill="#242938" rx="60"/><g clip-path="url(#v)"><path fill="url(#w)" d="M144.757 223.193c-5.061 6.373-15.323 2.881-15.445-5.257l-1.783-119.029h80.035c14.496 0 22.581 16.744 13.567 28.097z"/><path fill="url(#x)" fill-opacity=".2" d="M144.757 223.193c-5.061 6.373-15.323 2.881-15.445-5.257l-1.783-119.029h80.035c14.496 0 22.581 16.744 13.567 28.097z"/><path fill="#3ecf8e" d="M112.207 31.666c5.061-6.375 15.323-2.882 15.445 5.256l.782 119.029H49.4c-14.497 0-22.582-16.744-13.567-28.097z"/></g><defs><linearGradient id="w" x1="127.529" x2="198.661" y1="125.299" y2="155.132" gradientUnits="userSpaceOnUse"><stop stop-color="#249361"/><stop offset="1" stop-color="#3ecf8e"/></linearGradient><linearGradient id="x" x1="95.993" x2="128.433" y1="82.12" y2="143.187" gradientUnits="userSpaceOnUse"><stop/><stop offset="1" stop-opacity="0"/></linearGradient><clipPath id="v"><path fill="#fff" d="M32 28h192.92v200H32z"/></clipPath></defs></svg><svg xmlns="http://www.w3.org/2000/svg" width="256" height="256" transform="translate(2700 600)" viewBox="0 0 256 256"><rect width="256" height="256" fill="#430098" rx="60"/><path fill="#fff" d="M70 218v-51.429l28.929 25.715zm90 0v-76.789c-.125-6.001-3.015-13.211-16.071-13.211-26.145 0-55.473 13.15-55.765 13.281L70 149.51V38h25.714v73c12.838-4.179 30.783-8.714 48.215-8.714 15.894 0 25.408 6.248 30.59 11.491 11.06 11.185 11.211 25.434 11.196 27.08V218zm6.429-138.214h-25.715C150.82 66.526 157.165 52.574 160 38h25.714c-1.735 14.606-7.656 28.607-19.285 41.786"/></svg></svg>